<svg width="48" height="49" viewBox="0 0 48 49" fill="none" xmlns="http://www.w3.org/2000/svg">
<g clip-path="url(#clip0_1008_4669)">
<path d="M18 10.5H14C12.9391 10.5 11.9217 10.9214 11.1716 11.6716C10.4214 12.4217 10 13.4391 10 14.5V38.5C10 39.5609 10.4214 40.5783 11.1716 41.3284C11.9217 42.0786 12.9391 42.5 14 42.5H34C35.0609 42.5 36.0783 42.0786 36.8284 41.3284C37.5786 40.5783 38 39.5609 38 38.5V14.5C38 13.4391 37.5786 12.4217 36.8284 11.6716C36.0783 10.9214 35.0609 10.5 34 10.5H30" stroke="#27E7DB" stroke-width="2" stroke-linecap="round" stroke-linejoin="round"/>
<path d="M18 10.5C18 9.43913 18.4214 8.42172 19.1716 7.67157C19.9217 6.92143 20.9391 6.5 22 6.5H26C27.0609 6.5 28.0783 6.92143 28.8284 7.67157C29.5786 8.42172 30 9.43913 30 10.5C30 11.5609 29.5786 12.5783 28.8284 13.3284C28.0783 14.0786 27.0609 14.5 26 14.5H22C20.9391 14.5 19.9217 14.0786 19.1716 13.3284C18.4214 12.5783 18 11.5609 18 10.5Z" stroke="#27E7DB" stroke-width="2" stroke-linecap="round" stroke-linejoin="round"/>
<path d="M18 34.5V26.5" stroke="#27E7DB" stroke-width="2" stroke-linecap="round" stroke-linejoin="round"/>
<path d="M24 34.5V32.5" stroke="#27E7DB" stroke-width="2" stroke-linecap="round" stroke-linejoin="round"/>
<path d="M30 34.5V30.5" stroke="#27E7DB" stroke-width="2" stroke-linecap="round" stroke-linejoin="round"/>
<path d="M24 34.5V32.5" stroke="#27E7DB" stroke-width="2" stroke-linecap="round" stroke-linejoin="round"/>
</g>
<defs>
<clipPath id="clip0_1008_4669">
<rect width="48" height="48" fill="white" transform="translate(0 0.5)"/>
</clipPath>
</defs>
</svg>
