<svg width="20" height="17" viewBox="0 0 20 17" fill="none" xmlns="http://www.w3.org/2000/svg">
<path d="M5.17786 11.7842L11.9836 4.97848C12.8376 4.12448 14.0679 3.9696 14.9227 4.8236C15.7776 5.6776 15.6227 6.90873 14.7679 7.76273L7.65236 14.8782C6.41511 16.1155 3.93974 16.1155 2.39361 14.5685C0.846612 13.0215 0.846612 10.547 2.08386 9.30973L9.19936 2.19423C10.2693 1.1438 11.7107 0.558356 13.21 0.565246C14.7094 0.572135 16.1454 1.1708 17.2056 2.23102C18.2658 3.29123 18.8645 4.7272 18.8713 6.22655C18.8782 7.7259 18.2928 9.16732 17.2424 10.2372L13.2209 14.2587" stroke="#DEDEDE" stroke-linecap="round" stroke-linejoin="round"/>
</svg>
