<svg width="28" height="28" viewBox="0 0 28 28" fill="none" xmlns="http://www.w3.org/2000/svg">
<g clip-path="url(#clip0_1061_421)">
<path d="M17.5007 5.83334H8.16732C7.54848 5.83334 6.95499 6.07918 6.5174 6.51676C6.07982 6.95435 5.83398 7.54784 5.83398 8.16668V22.1667C5.83398 22.7855 6.07982 23.379 6.5174 23.8166C6.95499 24.2542 7.54848 24.5 8.16732 24.5H19.834C20.4528 24.5 21.0463 24.2542 21.4839 23.8166C21.9215 23.379 22.1673 22.7855 22.1673 22.1667V8.16668C22.1673 7.54784 21.9215 6.95435 21.4839 6.51676C21.0463 6.07918 20.4528 5.83334 19.834 5.83334H17.5007Z" stroke="#FFBD92" stroke-width="1.5" stroke-linecap="round" stroke-linejoin="round"/>
<path d="M10.5 14H17.5" stroke="#FFBD92" stroke-width="1.5" stroke-linecap="round" stroke-linejoin="round"/>
<path d="M10.5 18.6667H17.5" stroke="#FFBD92" stroke-width="1.5" stroke-linecap="round" stroke-linejoin="round"/>
</g>
<defs>
<clipPath id="clip0_1061_421">
<rect width="28" height="28" fill="white"/>
</clipPath>
</defs>
</svg>
