<svg width="48" height="49" viewBox="0 0 48 49" fill="none" xmlns="http://www.w3.org/2000/svg">
<g clip-path="url(#clip0_979_4369)">
<path d="M8 14.5H14C14.5304 14.5 15.0391 14.2893 15.4142 13.9142C15.7893 13.5391 16 13.0304 16 12.5V10.5C16 9.43913 16.4214 8.42172 17.1716 7.67157C17.9217 6.92143 18.9391 6.5 20 6.5C21.0609 6.5 22.0783 6.92143 22.8284 7.67157C23.5786 8.42172 24 9.43913 24 10.5V12.5C24 13.0304 24.2107 13.5391 24.5858 13.9142C24.9609 14.2893 25.4696 14.5 26 14.5H32C32.5304 14.5 33.0391 14.7107 33.4142 15.0858C33.7893 15.4609 34 15.9696 34 16.5V22.5C34 23.0304 34.2107 23.5391 34.5858 23.9142C34.9609 24.2893 35.4696 24.5 36 24.5H38C39.0609 24.5 40.0783 24.9214 40.8284 25.6716C41.5786 26.4217 42 27.4391 42 28.5C42 29.5609 41.5786 30.5783 40.8284 31.3284C40.0783 32.0786 39.0609 32.5 38 32.5H36C35.4696 32.5 34.9609 32.7107 34.5858 33.0858C34.2107 33.4609 34 33.9696 34 34.5V40.5C34 41.0304 33.7893 41.5391 33.4142 41.9142C33.0391 42.2893 32.5304 42.5 32 42.5H26C25.4696 42.5 24.9609 42.2893 24.5858 41.9142C24.2107 41.5391 24 41.0304 24 40.5V38.5C24 37.4391 23.5786 36.4217 22.8284 35.6716C22.0783 34.9214 21.0609 34.5 20 34.5C18.9391 34.5 17.9217 34.9214 17.1716 35.6716C16.4214 36.4217 16 37.4391 16 38.5V40.5C16 41.0304 15.7893 41.5391 15.4142 41.9142C15.0391 42.2893 14.5304 42.5 14 42.5H8C7.46957 42.5 6.96086 42.2893 6.58579 41.9142C6.21071 41.5391 6 41.0304 6 40.5V34.5C6 33.9696 6.21071 33.4609 6.58579 33.0858C6.96086 32.7107 7.46957 32.5 8 32.5H10C11.0609 32.5 12.0783 32.0786 12.8284 31.3284C13.5786 30.5783 14 29.5609 14 28.5C14 27.4391 13.5786 26.4217 12.8284 25.6716C12.0783 24.9214 11.0609 24.5 10 24.5H8C7.46957 24.5 6.96086 24.2893 6.58579 23.9142C6.21071 23.5391 6 23.0304 6 22.5V16.5C6 15.9696 6.21071 15.4609 6.58579 15.0858C6.96086 14.7107 7.46957 14.5 8 14.5Z" stroke="#FFBD92" stroke-width="2" stroke-linecap="round" stroke-linejoin="round"/>
</g>
<defs>
<clipPath id="clip0_979_4369">
<rect width="48" height="48" fill="white" transform="translate(0 0.5)"/>
</clipPath>
</defs>
</svg>
