<svg width="26" height="26" viewBox="0 0 26 26" fill="none" xmlns="http://www.w3.org/2000/svg">
<g clip-path="url(#clip0_1008_4678)">
<path d="M8.66602 7.58333C8.66602 8.73261 9.12256 9.83481 9.93522 10.6475C10.7479 11.4601 11.8501 11.9167 12.9993 11.9167C14.1486 11.9167 15.2508 11.4601 16.0635 10.6475C16.8761 9.83481 17.3327 8.73261 17.3327 7.58333C17.3327 6.43406 16.8761 5.33186 16.0635 4.5192C15.2508 3.70655 14.1486 3.25 12.9993 3.25C11.8501 3.25 10.7479 3.70655 9.93522 4.5192C9.12256 5.33186 8.66602 6.43406 8.66602 7.58333Z" stroke="#79FD66" stroke-width="1.5" stroke-linecap="round" stroke-linejoin="round"/>
<path d="M6 23V20.6667C6 19.429 6.49167 18.242 7.36683 17.3668C8.242 16.4917 9.42899 16 10.6667 16H15.3333C16.571 16 17.758 16.4917 18.6332 17.3668C19.5083 18.242 20 19.429 20 20.6667V23" stroke="#79FD66" stroke-width="1.5" stroke-linecap="round" stroke-linejoin="round"/>
</g>
<defs>
<clipPath id="clip0_1008_4678">
<rect width="26" height="26" fill="white"/>
</clipPath>
</defs>
</svg>
