<svg width="28" height="28" viewBox="0 0 28 28" fill="none" xmlns="http://www.w3.org/2000/svg">
<g clip-path="url(#clip0_386_944)">
<path d="M0.875 8.75C0.875 4.40077 4.40077 0.875 8.75 0.875H19.25C23.5992 0.875 27.125 4.40077 27.125 8.75V10.0625C27.125 10.5458 26.7333 10.9375 26.25 10.9375C25.7667 10.9375 25.375 10.5458 25.375 10.0625V8.75C25.375 5.36725 22.6327 2.625 19.25 2.625H8.75C5.36725 2.625 2.625 5.36725 2.625 8.75V19.25C2.625 22.6327 5.36725 25.375 8.75 25.375H19.25C22.6327 25.375 25.375 22.6327 25.375 19.25V14.4375C25.375 13.9542 25.7667 13.5625 26.25 13.5625C26.7333 13.5625 27.125 13.9542 27.125 14.4375V19.25C27.125 23.5992 23.5992 27.125 19.25 27.125H8.75C4.40077 27.125 0.875 23.5992 0.875 19.25V8.75Z" fill="#DEEA8A"/>
<path d="M14.4375 7.4375C14.4375 6.95424 14.8292 6.5625 15.3125 6.5625H16.1875C16.6708 6.5625 17.0625 6.95424 17.0625 7.4375C17.0625 7.92076 16.6708 8.3125 16.1875 8.3125H15.3125C14.8292 8.3125 14.4375 7.92076 14.4375 7.4375Z" fill="#DEEA8A"/>
<path d="M19.6875 7.4375C19.6875 7.92076 20.0792 8.3125 20.5625 8.3125H21.4375C21.9208 8.3125 22.3125 7.92076 22.3125 7.4375C22.3125 6.95424 21.9208 6.5625 21.4375 6.5625H20.5625C20.0792 6.5625 19.6875 6.95424 19.6875 7.4375Z" fill="#DEEA8A"/>
<path d="M15.3125 10.9375C14.8292 10.9375 14.4375 11.3292 14.4375 11.8125C14.4375 12.2958 14.8292 12.6875 15.3125 12.6875H21.4375C21.9208 12.6875 22.3125 12.2958 22.3125 11.8125C22.3125 11.3292 21.9208 10.9375 21.4375 10.9375H15.3125Z" fill="#DEEA8A"/>
<path d="M6.5625 15.3125C6.07924 15.3125 5.6875 15.7042 5.6875 16.1875C5.6875 16.6708 6.07924 17.0625 6.5625 17.0625H21.4375C21.9208 17.0625 22.3125 16.6708 22.3125 16.1875C22.3125 15.7042 21.9208 15.3125 21.4375 15.3125H6.5625Z" fill="#DEEA8A"/>
<path d="M6.5625 19.6875C6.07924 19.6875 5.6875 20.0792 5.6875 20.5625C5.6875 21.0458 6.07924 21.4375 6.5625 21.4375H8.75C9.23326 21.4375 9.625 21.0458 9.625 20.5625C9.625 20.0792 9.23326 19.6875 8.75 19.6875H6.5625Z" fill="#DEEA8A"/>
<path d="M21.4375 21.4375H13.125C12.6417 21.4375 12.25 21.0458 12.25 20.5625C12.25 20.0792 12.6417 19.6875 13.125 19.6875H21.4375C21.9208 19.6875 22.3125 20.0792 22.3125 20.5625C22.3125 21.0458 21.9208 21.4375 21.4375 21.4375Z" fill="#DEEA8A"/>
<path d="M6.125 7.4375C6.125 6.95424 6.51674 6.5625 7 6.5625H12.25C12.7333 6.5625 13.125 6.95424 13.125 7.4375C13.125 7.92076 12.7333 8.3125 12.25 8.3125H10.5V11.8125C10.5 12.2958 10.1083 12.6875 9.625 12.6875C9.14174 12.6875 8.75 12.2958 8.75 11.8125V8.3125H7C6.51674 8.3125 6.125 7.92076 6.125 7.4375Z" fill="#DEEA8A"/>
</g>
<defs>
<clipPath id="clip0_386_944">
<rect width="28" height="28" fill="white"/>
</clipPath>
</defs>
</svg>
