<svg width="22" height="22" viewBox="0 0 22 22" fill="none" xmlns="http://www.w3.org/2000/svg">
<g clip-path="url(#clip0_383_516)">
<path d="M0.365929 16.1333C0.365929 16.9434 1.02259 17.6 1.83259 17.6C2.0163 17.5993 2.19821 17.5637 2.36865 17.4951C3.23544 18.1588 4.45866 18.5049 5.96198 18.5049C6.18857 18.5049 6.424 18.4943 6.66267 18.4789C7.72747 20.6547 9.26381 22 10.9992 22C12.7347 22 14.271 20.6547 15.3362 18.48C15.5752 18.4954 15.8103 18.506 16.0369 18.506C17.5402 18.506 18.7634 18.1599 19.6302 17.4962C19.8006 17.5644 19.9824 17.5996 20.1659 17.6C20.8132 17.5982 21.3828 17.1721 21.5674 16.5516C21.7521 15.9311 21.5081 15.263 20.967 14.9076C21.0184 13.7269 20.5619 12.3871 19.6328 11C20.5619 9.61326 21.0184 8.27344 20.967 7.09241C21.6009 6.68333 21.8199 5.85937 21.4728 5.18954C21.1257 4.51971 20.3262 4.22355 19.6265 4.50556C18.6303 3.74327 17.1592 3.40558 15.3365 3.52437C14.2725 1.34678 12.7355 0 10.9993 0C9.26309 0 7.72603 1.34678 6.66087 3.52441C4.8389 3.40633 3.36856 3.74439 2.37085 4.5056C1.67157 4.22585 0.874133 4.52245 0.527595 5.19116C0.181058 5.85988 0.398551 6.68243 1.03031 7.09244C0.979721 8.27276 1.43657 9.61253 2.36573 11C1.43657 12.3871 0.979721 13.7269 1.03143 14.9076C0.616729 15.1775 0.366398 15.6386 0.365929 16.1333ZM1.09928 16.1333C1.09928 15.7283 1.42759 15.4 1.83262 15.4C2.23765 15.4 2.56597 15.7283 2.56597 16.1333C2.56597 16.5384 2.23765 16.8667 1.83262 16.8667C1.63812 16.8667 1.45159 16.7894 1.31406 16.6519C1.17654 16.5144 1.09928 16.3278 1.09928 16.1333ZM7.11591 4.29734C8.09205 4.41423 9.05375 4.63009 9.98619 4.94159C9.32988 5.2345 8.68895 5.56076 8.06596 5.91913C7.44076 6.27996 6.83516 6.6737 6.25168 7.09869C6.44391 6.138 6.73351 5.19936 7.11591 4.29734ZM15.7465 7.09869C15.1632 6.67366 14.5577 6.27989 13.9326 5.91913C13.3105 5.56119 12.6707 5.23494 12.0156 4.94159C12.9471 4.63024 13.9078 4.41441 14.883 4.29734C15.2652 5.19939 15.5545 6.138 15.7465 7.09869ZM14.8826 17.7027C13.9065 17.5858 12.9448 17.3699 12.0124 17.0584C12.6687 16.7655 13.3096 16.4393 13.9326 16.0809C14.5578 15.7201 15.1634 15.3263 15.7469 14.9013C15.5546 15.862 15.2651 16.8006 14.8826 17.7027ZM13.566 6.55454C14.3928 7.03041 15.1833 7.56684 15.9309 8.15944C16.0658 9.10029 16.1332 10.0496 16.1326 11C16.1333 11.9505 16.066 12.8997 15.9313 13.8406C15.1835 14.4332 14.3929 14.9696 13.566 15.4455C12.7416 15.9223 11.8838 16.3387 10.9993 16.6914C10.1147 16.3385 9.25688 15.9218 8.4326 15.4447C7.60571 14.9689 6.81524 14.4324 6.06761 13.8398C5.7992 11.9556 5.7992 10.0429 6.06761 8.15869C6.81528 7.56637 7.60579 7.0302 8.4326 6.55451C9.2576 6.07737 10.1162 5.66072 11.0015 5.30783C11.8853 5.6609 12.7424 6.07755 13.566 6.55454ZM16.7559 8.85245C17.4873 9.49987 18.1515 10.2194 18.7385 11C18.1523 11.7805 17.4889 12.5 16.7585 13.1476C16.8305 12.434 16.8664 11.7172 16.866 11C16.8662 10.2828 16.8301 9.56602 16.7578 8.85245H16.7559ZM5.2426 13.1476C4.51109 12.5003 3.84685 11.7808 3.26002 11C3.84624 10.2195 4.50958 9.50002 5.24 8.85245C5.09577 10.2805 5.09577 11.7195 5.24 13.1476H5.2426ZM8.06812 16.0809C8.69022 16.4388 9.33003 16.7651 9.98507 17.0584C9.05357 17.3698 8.09288 17.5856 7.11772 17.7027C6.73542 16.8006 6.44597 15.862 6.25385 14.9013C6.83657 15.3263 7.44145 15.7201 8.06592 16.0809H8.06812ZM10.9993 21.2667C9.62208 21.2667 8.37064 20.1744 7.44773 18.4027C8.66294 18.2304 9.85451 17.9199 10.9993 17.4772C12.1445 17.9201 13.3366 18.2306 14.5523 18.4027C13.6276 20.1744 12.3765 21.2667 10.9993 21.2667ZM20.166 16.8667C19.761 16.8667 19.4326 16.5384 19.4326 16.1333C19.4326 15.7283 19.7609 15.4 20.166 15.4C20.571 15.4 20.8993 15.7283 20.8993 16.1333C20.8993 16.5384 20.571 16.8667 20.166 16.8667ZM20.2429 14.6744C20.2169 14.6744 20.1923 14.6667 20.1659 14.6667C19.3559 14.6667 18.6993 15.3233 18.6993 16.1333C18.7006 16.4612 18.8129 16.779 19.0179 17.035C18.2193 17.5618 17.0537 17.8123 15.6574 17.7599C16.112 16.6241 16.4342 15.4398 16.6177 14.2303C17.5661 13.4667 18.4244 12.5974 19.1759 11.6395C19.795 12.5383 20.1634 13.5859 20.2429 14.6744ZM20.8993 5.86666C20.8993 6.27166 20.571 6.60001 20.1659 6.60001C19.7609 6.60001 19.4326 6.2717 19.4326 5.86666C19.4326 5.46163 19.7609 5.13332 20.1659 5.13332C20.571 5.13332 20.8993 5.46167 20.8993 5.86666ZM19.0179 4.96505C18.813 5.22101 18.7007 5.53878 18.6993 5.86666C18.6993 6.67669 19.3559 7.33332 20.1659 7.33332C20.1923 7.33332 20.2169 7.32708 20.2429 7.32563C20.1634 8.41414 19.7951 9.46177 19.1759 10.3605C18.4242 9.40255 17.5658 8.5333 16.6173 7.76968C16.4336 6.56013 16.111 5.37578 15.6559 4.24014C17.0533 4.18735 18.2197 4.43667 19.0179 4.96505ZM10.9993 0.733347C12.3765 0.733347 13.6279 1.82564 14.5508 3.59737C13.3362 3.7698 12.1453 4.08028 11.0011 4.52284C9.85591 4.07996 8.66384 3.76947 7.44813 3.59737C8.371 1.82564 9.62208 0.733347 10.9993 0.733347ZM1.83259 5.13335C2.23758 5.13335 2.56593 5.46167 2.56593 5.8667C2.56593 6.27173 2.23762 6.60005 1.83259 6.60005C1.42755 6.60005 1.09924 6.27173 1.09924 5.8667C1.09924 5.46167 1.42759 5.13335 1.83259 5.13335ZM1.75561 7.32563C1.78163 7.32563 1.80621 7.33332 1.83262 7.33332C2.64265 7.33332 3.29928 6.67666 3.29928 5.86666C3.29791 5.53878 3.18561 5.22097 2.98064 4.96505C3.77887 4.43815 4.94449 4.18807 6.34114 4.24014C5.88656 5.37585 5.56431 6.56021 5.38085 7.76968C4.43257 8.5333 3.57429 9.4024 2.82261 10.3602C2.2033 9.46158 1.83497 8.41407 1.75561 7.32563ZM2.82261 11.6398C3.57465 12.5975 4.43315 13.4666 5.38157 14.2303C5.56525 15.44 5.88772 16.6244 6.34262 17.7602C4.94709 17.813 3.78071 17.5618 2.98212 17.035C3.18655 16.7788 3.2983 16.461 3.29928 16.1333C3.29928 15.3233 2.64262 14.6667 1.83262 14.6667C1.80621 14.6667 1.78167 14.6733 1.75561 14.6744C1.83511 13.586 2.20341 12.5385 2.82261 11.6398Z" fill="url(#paint0_linear_383_516)"/>
</g>
<defs>
<linearGradient id="paint0_linear_383_516" x1="-2.41156" y1="11" x2="26.3389" y2="11" gradientUnits="userSpaceOnUse">
<stop stop-color="#36C1B1"/>
<stop offset="1" stop-color="#3CDD61"/>
</linearGradient>
<clipPath id="clip0_383_516">
<rect width="22" height="22" fill="white"/>
</clipPath>
</defs>
</svg>
