<svg width="28" height="28" viewBox="0 0 28 28" fill="none" xmlns="http://www.w3.org/2000/svg">
<g clip-path="url(#clip0_386_954)">
<path d="M12.3455 2.9902C15.6755 2.9902 18.6892 4.3438 20.8666 6.53112L22.2113 5.33395L21.247 4.25087C21.0009 3.97472 21.0257 3.55108 21.3022 3.30503L23.7442 1.13094C24.0203 0.884889 24.4439 0.909693 24.69 1.18584L25.654 2.26859L25.6636 2.26032C26.3178 1.67793 27.2239 2.66379 26.545 3.26965L27.509 4.3524C27.755 4.62887 27.7306 5.05218 27.4541 5.29823L25.0121 7.47233C24.7356 7.71838 24.312 7.6939 24.0663 7.41743L23.1022 6.33468L21.7576 7.53186C23.3923 9.58524 24.3699 12.1856 24.3699 15.0142C24.3699 21.6549 18.9862 27.0385 12.3455 27.0385C5.70518 27.0385 0.321533 21.6549 0.321533 15.0142C0.321533 8.37385 5.70518 2.9902 12.3455 2.9902ZM20.7545 8.42511L19.4869 9.55316C20.6467 11.0672 21.3359 12.9601 21.3359 15.0142C21.3359 19.9795 17.3108 24.0046 12.3455 24.0046C7.38056 24.0046 3.35515 19.9795 3.35515 15.0142C3.35515 10.0492 7.38056 6.02381 12.3455 6.02381C14.7746 6.02381 16.9781 6.9875 18.5956 8.55276L19.8626 7.4247C17.9322 5.51286 15.277 4.33189 12.3455 4.33189C6.44597 4.33189 1.66323 9.11464 1.66323 15.0142C1.66323 20.9141 6.44597 25.6968 12.3455 25.6968C18.2454 25.6968 23.0282 20.9141 23.0282 15.0142C23.0282 12.5279 22.1789 10.24 20.7545 8.42511ZM18.4822 10.4481L15.3653 13.2231C15.6771 13.7476 15.8564 14.3601 15.8564 15.0142C15.8564 16.9532 14.2845 18.525 12.3455 18.525C10.4069 18.525 8.83503 16.9532 8.83503 15.0142C8.83503 13.0756 10.4069 11.5037 12.3455 11.5037C13.1459 11.5037 13.8833 11.7716 14.474 12.2223L17.5906 9.44767C16.2215 8.1569 14.3761 7.36551 12.3455 7.36551C8.12136 7.36551 4.69684 10.79 4.69684 15.0142C4.69684 19.2387 8.12136 22.6632 12.3455 22.6632C16.57 22.6632 19.9946 19.2387 19.9946 15.0142C19.9946 13.3028 19.432 11.7223 18.4822 10.4481ZM14.3321 14.1428L12.791 15.5149C12.1322 16.1012 11.2413 15.1005 11.9001 14.5138L13.4412 13.142C13.1197 12.9535 12.7454 12.8454 12.3455 12.8454C11.1477 12.8454 10.1764 13.8164 10.1764 15.0142C10.1764 16.2124 11.1477 17.1833 12.3455 17.1833C13.5437 17.1833 14.5147 16.2124 14.5147 15.0142C14.5147 14.7043 14.4495 14.4093 14.3321 14.1428ZM25.5442 4.16058L24.103 5.44374L24.6215 6.02613L26.0628 4.74297L25.5442 4.16058ZM24.6533 3.15985L24.1347 2.57747L22.6935 3.8603L23.212 4.44268L24.6533 3.15985Z" fill="#FFBD92"/>
</g>
<defs>
<clipPath id="clip0_386_954">
<rect width="28" height="28" fill="white"/>
</clipPath>
</defs>
</svg>
