<svg width="28" height="28" viewBox="0 0 28 28" fill="none" xmlns="http://www.w3.org/2000/svg">
<path d="M6.07144 28H20.9243C22.0048 27.9985 23.0407 27.523 23.8047 26.6778C24.5688 25.8327 24.9986 24.6868 25 23.4915V7.10251C24.9986 5.90725 24.5688 4.76138 23.8047 3.9162C23.0407 3.07102 22.0048 2.59554 20.9243 2.59403H19.542V2.31973C19.541 1.70481 19.3198 1.11536 18.9267 0.680542C18.5336 0.245726 18.0008 0.00100396 17.4449 0H9.49591C8.93995 0.000753522 8.40694 0.245395 8.01381 0.680265C7.62068 1.11514 7.39952 1.70473 7.39884 2.31973V2.59403H6.07144C4.99165 2.5968 3.95687 3.07283 3.19374 3.91787C2.43061 4.76291 2.00136 5.90807 2 7.10251V23.4915C2.00136 24.686 2.43061 25.8311 3.19374 26.6762C3.95687 27.5212 4.99165 27.9972 6.07144 28ZM8.68592 2.31973C8.68614 2.08217 8.77155 1.85442 8.92341 1.68644C9.07526 1.51846 9.28116 1.42398 9.49591 1.42373H17.4449C17.6596 1.42423 17.8653 1.51879 18.0171 1.68672C18.1689 1.85464 18.2544 2.08225 18.2549 2.31973V3.28786V3.3059C18.2549 3.3059 18.2549 3.31729 18.2549 3.32393V4.29112C18.2547 4.52876 18.1693 4.75662 18.0174 4.92475C17.8656 5.09287 17.6597 5.18757 17.4449 5.18807H9.49591C9.28101 5.18782 9.07499 5.09321 8.92311 4.92502C8.77123 4.75684 8.68592 4.52884 8.68592 4.29112V2.31973ZM3.28707 7.10251C3.28798 6.28469 3.58208 5.50066 4.10486 4.92237C4.62763 4.34409 5.33641 4.01877 6.07573 4.01776H7.39884V4.29112C7.3993 4.90628 7.62036 5.49612 8.01351 5.9312C8.40666 6.36627 8.9398 6.61104 9.49591 6.6118H17.4449C18.001 6.61104 18.5341 6.36627 18.9273 5.9312C19.3204 5.49612 19.5415 4.90628 19.542 4.29112V4.01776H20.9243C21.6636 4.01877 22.3724 4.34409 22.8951 4.92237C23.4179 5.50066 23.712 6.28469 23.7129 7.10251V23.4915C23.712 24.3093 23.4179 25.0934 22.8951 25.6717C22.3724 26.2499 21.6636 26.5753 20.9243 26.5763H6.07144C5.33287 26.574 4.62519 26.2481 4.10334 25.67C3.58149 25.0918 3.28798 24.3085 3.28707 23.4915V7.10251Z" fill="#DEEA8A"/>
<path d="M14.0721 12.5189H21.0851C21.2708 12.5189 21.4488 12.4451 21.5801 12.3139C21.7114 12.1826 21.7851 12.0045 21.7851 11.8189C21.7851 11.6332 21.7114 11.4552 21.5801 11.3239C21.4488 11.1926 21.2708 11.1189 21.0851 11.1189H14.0721C13.8864 11.1189 13.7084 11.1926 13.5771 11.3239C13.4458 11.4552 13.3721 11.6332 13.3721 11.8189C13.3721 12.0045 13.4458 12.1826 13.5771 12.3139C13.7084 12.4451 13.8864 12.5189 14.0721 12.5189Z" fill="#DEEA8A"/>
<path d="M7.18675 13.1479C7.2979 13.2629 7.43103 13.3543 7.57822 13.4167C7.72542 13.4791 7.88367 13.5113 8.04355 13.5113C8.20344 13.5113 8.36169 13.4791 8.50888 13.4167C8.65608 13.3543 8.78921 13.2629 8.90035 13.1479L10.6886 11.3139C10.7541 11.2484 10.8058 11.1705 10.8409 11.0848C10.8761 10.9991 10.8938 10.9072 10.8932 10.8146C10.8926 10.722 10.8735 10.6304 10.8373 10.5452C10.801 10.46 10.7482 10.3828 10.6818 10.3182C10.6155 10.2535 10.537 10.2026 10.4509 10.1685C10.3648 10.1344 10.2728 10.1178 10.1802 10.1195C10.0875 10.1212 9.9962 10.1413 9.91142 10.1786C9.82663 10.2159 9.75009 10.2696 9.68622 10.3367L8.04355 12.0167L7.41729 11.3746C7.35276 11.3087 7.27588 11.2562 7.19105 11.22C7.10622 11.1838 7.0151 11.1647 6.92288 11.1638C6.83067 11.1628 6.73917 11.18 6.65361 11.2145C6.56805 11.2489 6.4901 11.2998 6.42422 11.3643C6.35834 11.4288 6.30582 11.5057 6.26965 11.5906C6.23348 11.6754 6.21437 11.7665 6.21342 11.8587C6.21246 11.9509 6.22968 12.0424 6.26409 12.128C6.2985 12.2136 6.34942 12.2915 6.41395 12.3574L7.18675 13.1479Z" fill="#DEEA8A"/>
<path d="M14.0721 17.2508H21.0851C21.2708 17.2508 21.4488 17.1771 21.5801 17.0458C21.7114 16.9145 21.7851 16.7365 21.7851 16.5508C21.7851 16.3652 21.7114 16.1871 21.5801 16.0559C21.4488 15.9246 21.2708 15.8508 21.0851 15.8508H14.0721C13.8864 15.8508 13.7084 15.9246 13.5771 16.0559C13.4458 16.1871 13.3721 16.3652 13.3721 16.5508C13.3721 16.7365 13.4458 16.9145 13.5771 17.0458C13.7084 17.1771 13.8864 17.2508 14.0721 17.2508Z" fill="#DEEA8A"/>
<path d="M7.18676 17.8808C7.29797 17.9956 7.43113 18.0869 7.57831 18.1493C7.7255 18.2116 7.88372 18.2438 8.04356 18.2438C8.20341 18.2438 8.36163 18.2116 8.50881 18.1493C8.656 18.0869 8.78915 17.9956 8.90036 17.8808L10.6886 16.0468C10.7541 15.9813 10.8058 15.9034 10.841 15.8177C10.8761 15.732 10.8938 15.6401 10.8932 15.5475C10.8926 15.4549 10.8736 15.3633 10.8373 15.2781C10.801 15.1929 10.7482 15.1157 10.6818 15.0511C10.6155 14.9864 10.537 14.9356 10.4509 14.9015C10.3648 14.8674 10.2728 14.8507 10.1802 14.8524C10.0876 14.8541 9.99621 14.8742 9.91143 14.9115C9.82664 14.9488 9.7501 15.0025 9.68623 15.0696L8.04356 16.7496L7.4173 16.1075C7.35307 16.0417 7.27651 15.9892 7.19199 15.9529C7.10746 15.9167 7.01663 15.8975 6.92468 15.8963C6.73897 15.8941 6.55996 15.9657 6.42703 16.0954C6.2941 16.2251 6.21815 16.4023 6.21587 16.588C6.2136 16.7737 6.28519 16.9527 6.4149 17.0856L7.18676 17.8808Z" fill="#DEEA8A"/>
<path d="M14.0721 21.9837H21.0851C21.2708 21.9837 21.4488 21.91 21.5801 21.7787C21.7114 21.6474 21.7851 21.4694 21.7851 21.2837C21.7851 21.0981 21.7114 20.92 21.5801 20.7888C21.4488 20.6575 21.2708 20.5837 21.0851 20.5837H14.0721C13.8864 20.5837 13.7084 20.6575 13.5771 20.7888C13.4458 20.92 13.3721 21.0981 13.3721 21.2837C13.3721 21.4694 13.4458 21.6474 13.5771 21.7787C13.7084 21.91 13.8864 21.9837 14.0721 21.9837Z" fill="#DEEA8A"/>
<path d="M7.18676 22.6128C7.29804 22.7275 7.43122 22.8187 7.57839 22.881C7.72557 22.9433 7.88375 22.9754 8.04356 22.9754C8.20337 22.9754 8.36156 22.9433 8.50874 22.881C8.65591 22.8187 8.78909 22.7275 8.90036 22.6128L10.6886 20.7779C10.8157 20.6445 10.885 20.4663 10.8815 20.2822C10.8781 20.098 10.8022 19.9226 10.6703 19.794C10.5384 19.6654 10.3611 19.594 10.1769 19.5952C9.99267 19.5965 9.81638 19.6703 9.68623 19.8007L8.04356 21.4807L7.4173 20.8386C7.28759 20.7056 7.11039 20.6297 6.92468 20.6274C6.73897 20.6251 6.55996 20.6967 6.42703 20.8264C6.2941 20.9561 6.21815 21.1333 6.21587 21.319C6.2136 21.5048 6.28519 21.6838 6.4149 21.8167L7.18676 22.6128Z" fill="#DEEA8A"/>
</svg>
