<svg width="30" height="30" viewBox="0 0 30 30" fill="none" xmlns="http://www.w3.org/2000/svg">
<path d="M24.385 15.0002C25.5025 13.4127 26.415 11.8302 27.0612 10.324C28.4837 7.00521 28.4775 4.38771 27.045 2.95521C25.6125 1.52271 22.995 1.51646 19.6762 2.93896C18.17 3.58521 16.5875 4.49771 15 5.61521C13.4125 4.49771 11.83 3.58521 10.3237 2.93896C7.00374 1.51646 4.38749 1.52146 2.95499 2.95521C1.52249 4.38771 1.51624 7.00521 2.93999 10.324C3.58499 11.8302 4.49749 13.4127 5.61499 15.0002C4.49749 16.5877 3.58499 18.1702 2.93874 19.6765C1.51624 22.9952 1.52249 25.6127 2.95499 27.0452C3.67374 27.764 4.69124 28.124 5.94624 28.124C7.19124 28.124 8.67124 27.7702 10.3237 27.0615C11.8312 26.4152 13.4137 25.5027 15 24.3852C16.5875 25.5027 18.17 26.4152 19.6762 27.0615C21.33 27.7702 22.8087 28.124 24.0537 28.124C25.3075 28.124 26.325 27.764 27.045 27.0452C28.4775 25.6127 28.4837 22.9965 27.0612 19.6765C26.415 18.1702 25.5025 16.5877 24.385 15.0002ZM20.1687 4.08896C21.6625 3.44896 22.985 3.12646 24.0487 3.12646C24.9612 3.12646 25.6837 3.36396 26.16 3.84021C27.1912 4.87146 27.1012 7.05521 25.9112 9.83146C25.345 11.1527 24.555 12.5377 23.5987 13.9352C22.56 12.5727 21.3825 11.219 20.0812 9.91771C18.78 8.61646 17.4262 7.44021 16.0637 6.40021C17.4625 5.44521 18.8487 4.65396 20.1687 4.08896ZM22.8387 15.0002C21.7812 16.4202 20.5612 17.8377 19.2 19.199C17.8387 20.5602 16.42 21.7802 15 22.839C13.58 21.7815 12.1625 20.5615 10.8012 19.2002C9.43999 17.839 8.21999 16.4202 7.16124 15.0002C8.21874 13.5802 9.43874 12.1627 10.8 10.8015C12.1612 9.44021 13.58 8.22021 15 7.16146C16.42 8.21896 17.8375 9.43896 19.1987 10.8002C20.56 12.1615 21.78 13.5802 22.8387 15.0002ZM4.08874 9.83146C2.89749 7.05521 2.80749 4.87021 3.83874 3.83896C4.31624 3.36271 5.03749 3.12521 5.94999 3.12521C7.01374 3.12521 8.33624 3.44771 9.82999 4.08771C11.1512 4.65396 12.5362 5.44396 13.9337 6.40021C12.5712 7.43896 11.2175 8.61646 9.91624 9.91771C8.61499 11.219 7.43874 12.5727 6.39874 13.9352C5.44499 12.5377 4.65374 11.1515 4.08874 9.83146ZM9.83124 25.9115C7.05624 27.1015 4.87124 27.1915 3.83999 26.1602C2.80874 25.129 2.89874 22.9452 4.08874 20.169C4.65499 18.8477 5.44499 17.4627 6.40124 16.0652C7.43999 17.4277 8.61749 18.7815 9.91874 20.0827C11.22 21.384 12.5737 22.5602 13.9362 23.6002C12.5375 24.5552 11.1512 25.3465 9.83124 25.9115ZM26.1612 26.1615C25.13 27.1952 22.9475 27.1015 20.17 25.9127C18.8487 25.3465 17.4637 24.5565 16.0662 23.6002C17.4287 22.5615 18.7825 21.384 20.0837 20.0827C21.385 18.7815 22.5612 17.4277 23.6012 16.0652C24.5575 17.4615 25.3475 18.8477 25.9137 20.169C27.1025 22.9452 27.1925 25.1302 26.1612 26.1615Z" fill="#27E7DB"/>
<path d="M15 11.875C13.2775 11.875 11.875 13.2775 11.875 15C11.875 16.7225 13.2775 18.125 15 18.125C16.7225 18.125 18.125 16.7225 18.125 15C18.125 13.2775 16.7225 11.875 15 11.875ZM15 16.875C13.9662 16.875 13.125 16.0338 13.125 15C13.125 13.9662 13.9662 13.125 15 13.125C16.0338 13.125 16.875 13.9662 16.875 15C16.875 16.0338 16.0338 16.875 15 16.875Z" fill="#27E7DB"/>
</svg>
