<svg width="28" height="28" viewBox="0 0 28 28" fill="none" xmlns="http://www.w3.org/2000/svg">
<g clip-path="url(#clip0_557_610)">
<path d="M9.15247 17.2308C9.26669 17.2785 9.3952 17.2788 9.50965 17.2318C9.6241 17.1847 9.71522 17.094 9.76285 16.9798L10.4209 15.4002H12.9101L13.5681 16.9798C13.6673 17.2177 13.9406 17.3301 14.1785 17.2309C14.4164 17.1317 14.5288 16.8584 14.4296 16.6205L12.0962 11.0205C12.0238 10.8467 11.8539 10.7334 11.6655 10.7334C11.4772 10.7334 11.3073 10.8467 11.2348 11.0205L8.90147 16.6205C8.8538 16.7347 8.85348 16.8632 8.90055 16.9777C8.94763 17.0921 9.0382 17.1832 9.15247 17.2308ZM11.6655 12.4134L12.5209 14.4668H10.8101L11.6655 12.4134Z" fill="#FFBD92"/>
<path fill-rule="evenodd" clip-rule="evenodd" d="M15.3988 16.3334C15.1411 16.3334 14.9321 16.5423 14.9321 16.8001C14.9321 17.0578 15.1411 17.2668 15.3988 17.2668H18.1988C18.4566 17.2668 18.6655 17.0578 18.6655 16.8001C18.6655 16.5423 18.4566 16.3334 18.1988 16.3334H17.2655V11.6667H18.1988C18.4566 11.6667 18.6655 11.4578 18.6655 11.2001C18.6655 10.9423 18.4566 10.7334 18.1988 10.7334H15.3988C15.1411 10.7334 14.9321 10.9423 14.9321 11.2001C14.9321 11.4578 15.1411 11.6667 15.3988 11.6667H16.3322V16.3334H15.3988Z" fill="#FFBD92"/>
<path d="M0.465528 20.5333C0.465528 21.5643 1.30128 22.4 2.33218 22.4C2.566 22.3991 2.79752 22.3538 3.01444 22.2665C4.11764 23.1112 5.67446 23.5517 7.58778 23.5517C7.87616 23.5517 8.17579 23.5382 8.47956 23.5186C9.83476 26.2878 11.7901 28 13.9988 28C16.2076 28 18.1629 26.2878 19.5186 23.52C19.8228 23.5396 20.122 23.5531 20.4103 23.5531C22.3237 23.5531 23.8805 23.1126 24.9837 22.2679C25.2005 22.3547 25.4319 22.3995 25.6655 22.4C26.4894 22.3976 27.2143 21.8554 27.4493 21.0657C27.6842 20.276 27.3737 19.4256 26.6851 18.9733C26.7504 17.4706 26.1694 15.7654 24.9869 14C26.1694 12.2351 26.7505 10.5298 26.6851 9.0267C27.4919 8.50606 27.7706 7.45739 27.3289 6.60487C26.8871 5.75235 25.8695 5.37542 24.979 5.73435C23.7111 4.76416 21.8388 4.33437 19.519 4.48556C18.1648 1.71408 16.2086 0 13.9989 0C11.7892 0 9.83292 1.71408 8.47726 4.48561C6.1584 4.33533 4.28706 4.76559 3.01724 5.73439C2.12725 5.37836 1.11233 5.75584 0.671285 6.60694C0.230238 7.45803 0.507047 8.50491 1.31111 9.02675C1.24672 10.529 1.82817 12.2341 3.01072 14C1.82817 15.7654 1.24672 17.4706 1.31253 18.9733C0.784728 19.3168 0.466125 19.9036 0.465528 20.5333ZM1.39888 20.5333C1.39888 20.0179 1.81673 19.6 2.33223 19.6C2.84772 19.6 3.26558 20.0178 3.26558 20.5333C3.26558 21.0488 2.84772 21.4667 2.33223 21.4667C2.08468 21.4667 1.84727 21.3684 1.67224 21.1933C1.49721 21.0183 1.39888 20.7809 1.39888 20.5333ZM9.05642 5.46934C10.2988 5.6181 11.5228 5.89285 12.7095 6.2893C11.8742 6.6621 11.0585 7.07733 10.2656 7.53344C9.46986 7.99268 8.6991 8.4938 7.95649 9.03469C8.20114 7.812 8.56972 6.61736 9.05642 5.46934ZM20.0408 9.03469C19.2984 8.49375 18.5278 7.99259 17.7322 7.53344C16.9404 7.07788 16.1261 6.66265 15.2924 6.2893C16.478 5.89303 17.7007 5.61833 18.9418 5.46934C19.4282 6.61741 19.7964 7.812 20.0408 9.03469ZM18.9413 22.5307C17.699 22.3819 16.475 22.1072 15.2883 21.7107C16.1236 21.3379 16.9393 20.9227 17.7322 20.4666C18.5279 20.0074 19.2986 19.5062 20.0413 18.9654C19.7966 20.188 19.4281 21.3826 18.9413 22.5307ZM17.2656 8.34214C18.3179 8.9478 19.324 9.63052 20.2755 10.3847C20.4472 11.5822 20.5329 12.7904 20.5322 14C20.5331 15.2097 20.4474 16.4179 20.276 17.6153C19.3243 18.3695 18.318 19.0522 17.2656 19.6579C16.2164 20.2647 15.1247 20.7947 13.9989 21.2436C12.873 20.7944 11.7813 20.2642 10.7322 19.6569C9.6798 19.0513 8.67374 18.3686 7.72221 17.6143C7.38059 15.2162 7.38059 12.7819 7.72221 10.3838C8.67379 9.62992 9.67989 8.94752 10.7322 8.3421C11.7822 7.73484 12.8749 7.20455 14.0017 6.75542C15.1265 7.20478 16.2174 7.73507 17.2656 8.34214ZM21.3255 11.2668C22.2563 12.0907 23.1017 13.0065 23.8488 14C23.1027 14.9934 22.2584 15.9091 21.3289 16.7333C21.4205 15.8251 21.4661 14.9128 21.4656 14C21.4659 13.0872 21.4199 12.1749 21.3279 11.2668H21.3255ZM6.6722 16.7333C5.74119 15.9095 4.89579 14.9938 4.14891 14C4.89501 13.0066 5.73926 12.0909 6.66889 11.2668C6.48532 13.0843 6.48532 14.9157 6.66889 16.7333H6.6722ZM10.2683 20.4666C11.0601 20.9222 11.8744 21.3374 12.7081 21.7107C11.5225 22.107 10.2998 22.3817 9.05871 22.5307C8.57215 21.3826 8.20376 20.188 7.95924 18.9654C8.70089 19.5062 9.47073 20.0074 10.2655 20.4666H10.2683ZM13.9989 27.0667C12.2461 27.0667 10.6533 25.6765 9.47873 23.4216C11.0254 23.2023 12.5419 22.8071 13.9989 22.2437C15.4564 22.8074 16.9736 23.2025 18.5209 23.4216C17.344 25.6765 15.7517 27.0667 13.9989 27.0667ZM25.6656 21.4667C25.1501 21.4667 24.7322 21.0488 24.7322 20.5333C24.7322 20.0178 25.1501 19.6 25.6656 19.6C26.1811 19.6 26.5989 20.0178 26.5989 20.5333C26.5989 21.0488 26.181 21.4667 25.6656 21.4667ZM25.7635 18.6765C25.7304 18.6765 25.6991 18.6667 25.6655 18.6667C24.6346 18.6667 23.7989 19.5024 23.7989 20.5333C23.8006 20.9506 23.9435 21.3551 24.2044 21.6808C23.188 22.3514 21.7045 22.6702 19.9274 22.6035C20.506 21.158 20.9161 19.6506 21.1496 18.1113C22.3566 17.1394 23.449 16.0331 24.4055 14.8139C25.1935 15.9578 25.6623 17.2911 25.7635 18.6765ZM26.5989 7.46666C26.5989 7.98211 26.181 8.40001 25.6655 8.40001C25.15 8.40001 24.7322 7.98216 24.7322 7.46666C24.7322 6.95117 25.15 6.53331 25.6655 6.53331C26.181 6.53331 26.5989 6.95121 26.5989 7.46666ZM24.2044 6.31915C23.9436 6.64492 23.8007 7.04936 23.7989 7.46666C23.7989 8.49761 24.6346 9.33332 25.6655 9.33332C25.6991 9.33332 25.7304 9.32537 25.7635 9.32353C25.6624 10.7089 25.1936 12.0422 24.4055 13.1861C23.4488 11.9669 22.3563 10.8606 21.1491 9.88868C20.9153 8.34926 20.5047 6.8419 19.9255 5.39655C21.704 5.32935 23.1885 5.64667 24.2044 6.31915ZM13.9989 0.93335C15.7517 0.93335 17.3444 2.32355 18.519 4.57848C16.9732 4.79792 15.4574 5.19309 14.0012 5.75635C12.5437 5.19267 11.0265 4.79751 9.47923 4.57848C10.6538 2.32355 12.2461 0.93335 13.9989 0.93335ZM2.33218 6.53336C2.84763 6.53336 3.26553 6.95121 3.26553 7.46671C3.26553 7.98221 2.84768 8.40006 2.33218 8.40006C1.81669 8.40006 1.39883 7.98221 1.39883 7.46671C1.39883 6.95121 1.81673 6.53336 2.33218 6.53336ZM2.23422 9.32353C2.26733 9.32353 2.29861 9.33332 2.33223 9.33332C3.36317 9.33332 4.19888 8.49756 4.19888 7.46666C4.19714 7.04936 4.05421 6.64487 3.79334 6.31915C4.80927 5.64855 6.29279 5.33027 8.07034 5.39655C7.49179 6.842 7.08165 8.34935 6.84815 9.88868C5.64125 10.8606 4.5489 11.9667 3.59222 13.1857C2.804 12.042 2.33521 10.7088 2.23422 9.32353ZM3.59222 14.8143C4.54936 16.0332 5.64199 17.1393 6.84907 18.1113C7.08284 19.6509 7.49326 21.1584 8.07222 22.6039C6.29609 22.6711 4.81161 22.3514 3.79522 21.6808C4.0554 21.3549 4.19764 20.9504 4.19888 20.5333C4.19888 19.5024 3.36313 18.6667 2.33223 18.6667C2.29861 18.6667 2.26738 18.6751 2.23422 18.6765C2.3354 17.2912 2.80414 15.9581 3.59222 14.8143Z" fill="#FFBD92"/>
</g>
<defs>
<clipPath id="clip0_557_610">
<rect width="28" height="28" fill="white"/>
</clipPath>
</defs>
</svg>
