<svg width="28" height="28" viewBox="0 0 28 28" fill="none" xmlns="http://www.w3.org/2000/svg">
<g clip-path="url(#clip0_557_618)">
<path d="M0.933333 6.53333V5.6C0.685798 5.6 0.448401 5.69833 0.273367 5.87337C0.0983331 6.0484 0 6.2858 0 6.53333H0.933333ZM12.1333 6.53333H13.0667C13.0667 6.2858 12.9683 6.0484 12.7933 5.87337C12.6183 5.69833 12.3809 5.6 12.1333 5.6V6.53333ZM12.1333 27.0667V28C12.3809 28 12.6183 27.9017 12.7933 27.7266C12.9683 27.5516 13.0667 27.3142 13.0667 27.0667H12.1333ZM0.933333 27.0667H0C0 27.3142 0.0983331 27.5516 0.273367 27.7266C0.448401 27.9017 0.685798 28 0.933333 28V27.0667ZM15.8667 6.53333V5.6C15.6191 5.6 15.3817 5.69833 15.2067 5.87337C15.0317 6.0484 14.9333 6.2858 14.9333 6.53333H15.8667ZM27.0667 6.53333H28C28 6.2858 27.9017 6.0484 27.7266 5.87337C27.5516 5.69833 27.3142 5.6 27.0667 5.6V6.53333ZM27.0667 17.7333V18.6667C27.3142 18.6667 27.5516 18.5683 27.7266 18.3933C27.9017 18.2183 28 17.9809 28 17.7333H27.0667ZM15.8667 17.7333H14.9333C14.9333 17.9809 15.0317 18.2183 15.2067 18.3933C15.3817 18.5683 15.6191 18.6667 15.8667 18.6667V17.7333ZM0 1.86667H13.0667V0H0V1.86667ZM14.9333 1.86667H28V0H14.9333V1.86667ZM0.933333 7.46667H12.1333V5.6H0.933333V7.46667ZM11.2 6.53333V27.0667H13.0667V6.53333H11.2ZM12.1333 26.1333H0.933333V28H12.1333V26.1333ZM1.86667 27.0667V6.53333H0L0 27.0667H1.86667ZM15.8667 7.46667H27.0667V5.6H15.8667V7.46667ZM26.1333 6.53333V17.7333H28V6.53333H26.1333ZM27.0667 16.8H15.8667V18.6667H27.0667V16.8ZM16.8 17.7333V6.53333H14.9333V17.7333H16.8Z" fill="#DEEA8A"/>
</g>
<defs>
<clipPath id="clip0_557_618">
<rect width="28" height="28" fill="white"/>
</clipPath>
</defs>
</svg>
