<svg width="30" height="30" viewBox="0 0 30 30" fill="none" xmlns="http://www.w3.org/2000/svg">
<g clip-path="url(#clip0_406_1335)">
<path d="M10.625 25.625H1.875V18.125" stroke="#FFBD92" stroke-width="1.5" stroke-miterlimit="10" stroke-linecap="round"/>
<path d="M13.125 26.875H14.375" stroke="#FFBD92" stroke-width="1.5" stroke-miterlimit="10"/>
<path d="M15.625 26.875H16.875" stroke="#FFBD92" stroke-width="1.5" stroke-miterlimit="10"/>
<path d="M18.125 26.875H21.875" stroke="#FFBD92" stroke-width="1.5" stroke-miterlimit="10"/>
<path d="M23.125 26.875H24.375" stroke="#FFBD92" stroke-width="1.5" stroke-miterlimit="10"/>
<path d="M25.625 26.875H26.875" stroke="#FFBD92" stroke-width="1.5" stroke-miterlimit="10"/>
<path d="M13.125 24.375H14.375" stroke="#FFBD92" stroke-width="1.5" stroke-miterlimit="10"/>
<path d="M15.625 24.375H16.875" stroke="#FFBD92" stroke-width="1.5" stroke-miterlimit="10"/>
<path d="M18.125 24.375H19.375" stroke="#FFBD92" stroke-width="1.5" stroke-miterlimit="10"/>
<path d="M20.625 24.375H21.875" stroke="#FFBD92" stroke-width="1.5" stroke-miterlimit="10"/>
<path d="M23.125 24.375H24.375" stroke="#FFBD92" stroke-width="1.5" stroke-miterlimit="10"/>
<path d="M25.625 24.375H26.875" stroke="#FFBD92" stroke-width="1.5" stroke-miterlimit="10"/>
<path d="M15.625 21.875H28.125C28.4565 21.875 28.7745 22.0067 29.0089 22.2411C29.2433 22.4755 29.375 22.7935 29.375 23.125V28.125C29.375 28.4565 29.2433 28.7745 29.0089 29.0089C28.7745 29.2433 28.4565 29.375 28.125 29.375H11.875C11.5435 29.375 11.2255 29.2433 10.9911 29.0089C10.7567 28.7745 10.625 28.4565 10.625 28.125V23.125C10.625 22.7935 10.7567 22.4755 10.9911 22.2411C11.2255 22.0067 11.5435 21.875 11.875 21.875H14.375" stroke="#FFBD92" stroke-width="1.5" stroke-miterlimit="10"/>
<path d="M23.125 21.875V14.0625C23.125 13.6481 23.2896 13.2507 23.5826 12.9576C23.8757 12.6646 24.2731 12.5 24.6875 12.5C25.1019 12.5 25.4993 12.6646 25.7924 12.9576C26.0854 13.2507 26.25 13.6481 26.25 14.0625V18.4375C26.25 18.8519 26.4146 19.2493 26.7076 19.5424C27.0007 19.8354 27.3981 20 27.8125 20C28.2269 20 28.6243 19.8354 28.9174 19.5424C29.2104 19.2493 29.375 18.8519 29.375 18.4375V4.375H17.1875" stroke="#FFBD92" stroke-width="1.5" stroke-miterlimit="10"/>
<path d="M8.02661 2.67188L8.7545 0.625H11.2455L11.9734 2.67188L13.7864 3.42284L15.7484 2.4902L17.5098 4.2516L16.5772 6.21361L17.3281 8.02662L19.375 8.75451V11.2455L17.3281 11.9734L16.5772 13.7864L17.5098 15.7484L15.7484 17.5098L13.7864 16.5772L11.9734 17.3281L11.2455 19.375H8.75451L8.02662 17.3281L6.21361 16.5772L4.25157 17.5098L2.49018 15.7484L3.42283 13.7864L2.67188 11.9734L0.625 11.2455V8.75451L2.67188 8.02662L3.42283 6.21361L2.49018 4.25157L4.25157 2.49018L6.21361 3.42282L8.02661 2.67188Z" stroke="#FFBD92" stroke-width="1.5" stroke-miterlimit="10"/>
<path d="M10 12.4849C11.2944 12.4849 12.3438 11.4355 12.3438 10.1411C12.3438 8.8467 11.2944 7.79736 10 7.79736C8.70558 7.79736 7.65625 8.8467 7.65625 10.1411C7.65625 11.4355 8.70558 12.4849 10 12.4849Z" stroke="#FFBD92" stroke-width="1.5" stroke-miterlimit="10"/>
<path d="M20.625 6.875H29.375" stroke="#FFBD92" stroke-width="1.5" stroke-miterlimit="10" stroke-linecap="round"/>
</g>
<defs>
<clipPath id="clip0_406_1335">
<rect width="30" height="30" fill="white"/>
</clipPath>
</defs>
</svg>
