<svg width="28" height="28" viewBox="0 0 28 28" fill="none" xmlns="http://www.w3.org/2000/svg">
<path d="M22.5376 15.7499H18.0168C17.4175 15.7493 16.8424 15.9864 16.4177 16.4091C15.993 16.8319 15.7532 17.4058 15.7511 18.0051V22.5259C15.7508 22.8235 15.8092 23.1183 15.9229 23.3933C16.0367 23.6683 16.2036 23.9182 16.414 24.1287C16.6244 24.3391 16.8743 24.506 17.1494 24.6197C17.4244 24.7335 17.7191 24.7919 18.0168 24.7916H22.5376C23.1366 24.7891 23.7103 24.5492 24.1328 24.1246C24.5553 23.6999 24.7922 23.125 24.7916 22.5259V18.0051C24.7919 17.709 24.7338 17.4158 24.6206 17.1422C24.5075 16.8685 24.3415 16.6199 24.1321 16.4106C23.9227 16.2012 23.6741 16.0352 23.4005 15.922C23.1269 15.8089 22.8337 15.7508 22.5376 15.7511M9.98309 15.7499H5.46225C4.86328 15.7533 4.28999 15.9936 3.86765 16.4184C3.44531 16.8431 3.20824 17.4178 3.20825 18.0168V22.5376C3.20795 22.8337 3.26604 23.1269 3.3792 23.4005C3.49237 23.6741 3.65839 23.9227 3.86775 24.1321C4.07711 24.3415 4.32572 24.5075 4.59932 24.6206C4.87293 24.7338 5.16617 24.7919 5.46225 24.7916H9.98309C10.5822 24.7922 11.157 24.5553 11.5817 24.1328C12.0064 23.7103 12.2463 23.1366 12.2488 22.5376V18.0168C12.2491 17.7191 12.1907 17.4244 12.0769 17.1494C11.9632 16.8743 11.7963 16.6244 11.5858 16.414C11.3754 16.2036 11.1255 16.0367 10.8505 15.9229C10.5755 15.8092 10.2807 15.7508 9.98309 15.7511M9.98309 3.20825H5.46225C5.16617 3.20795 4.87293 3.26604 4.59932 3.3792C4.32572 3.49237 4.07711 3.65839 3.86775 3.86775C3.65839 4.07711 3.49237 4.32572 3.3792 4.59932C3.26604 4.87293 3.20795 5.16617 3.20825 5.46225V9.98309C3.20763 10.5822 3.44453 11.157 3.86704 11.5817C4.28955 12.0064 4.86319 12.2463 5.46225 12.2488H9.98309C10.2807 12.2491 10.5755 12.1907 10.8505 12.0769C11.1255 11.9632 11.3754 11.7963 11.5858 11.5858C11.7963 11.3754 11.9632 11.1255 12.0769 10.8505C12.1907 10.5755 12.2491 10.2807 12.2488 9.98309V5.46225C12.2463 4.86319 12.0064 4.28955 11.5817 3.86704C11.157 3.44453 10.5822 3.20763 9.98309 3.20825ZM22.5376 3.20825H18.0168C17.4177 3.20763 16.8428 3.44453 16.4181 3.86704C15.9934 4.28955 15.7536 4.86319 15.7511 5.46225V9.98309C15.7514 10.5839 15.9902 11.16 16.415 11.5848C16.8399 12.0096 17.416 12.2484 18.0168 12.2488H22.5376C23.1366 12.2463 23.7103 12.0064 24.1328 11.5817C24.5553 11.157 24.7922 10.5822 24.7916 9.98309V5.46225C24.7919 5.16617 24.7338 4.87293 24.6206 4.59932C24.5075 4.32572 24.3415 4.07711 24.1321 3.86775C23.9227 3.65839 23.6741 3.49237 23.4005 3.3792C23.1269 3.26604 22.8337 3.20795 22.5376 3.20825Z" stroke="#C2AFFD" stroke-width="1.5" stroke-linecap="round" stroke-linejoin="round"/>
</svg>
