<svg width="28" height="28" viewBox="0 0 28 28" fill="none" xmlns="http://www.w3.org/2000/svg">
<path fill-rule="evenodd" clip-rule="evenodd" d="M11.6696 1.71045H13.9981C15.8831 1.71043 17.3884 1.71042 18.5691 1.86586C19.7908 2.02667 20.7943 2.36784 21.5864 3.14332C22.3019 3.84395 22.6533 4.71197 22.8341 5.75572C23.011 6.77643 23.037 8.04548 23.0417 9.60404V9.60645V10.9504C23.0417 11.4144 22.6499 11.7904 22.1667 11.7904C21.6834 11.7904 21.2917 11.4144 21.2917 10.9504V9.60775C21.2869 8.02768 21.2576 6.89531 21.1078 6.03141C20.9621 5.19033 20.7156 4.69044 20.3368 4.31947C19.9226 3.91399 19.3526 3.6647 18.3315 3.53028C17.2834 3.39231 15.8983 3.39045 13.9319 3.39045H11.7357C9.76935 3.39045 8.38431 3.39231 7.3362 3.53028C6.31506 3.6647 5.74501 3.91399 5.3309 4.31947C4.91443 4.72726 4.65665 5.29222 4.51826 6.30003C4.37679 7.33033 4.375 8.69045 4.375 10.6145V15.7664C4.375 17.6905 4.37679 19.0506 4.51826 20.0809C4.65665 21.0887 4.91442 21.6536 5.3309 22.0614C5.70019 22.4231 6.19133 22.6585 7.00838 22.8008C7.85208 22.9478 8.95828 22.9822 10.5039 22.9888C10.9872 22.9909 11.3772 23.3687 11.375 23.8326C11.3728 24.2965 10.9793 24.6709 10.4961 24.6688C8.96854 24.6622 7.71316 24.631 6.69587 24.4538C5.65194 24.272 4.78272 23.9244 4.0813 23.2376C3.29167 22.4644 2.94641 21.4885 2.78327 20.3004C2.62497 19.1475 2.62498 17.6765 2.625 15.8279V10.5529C2.62498 8.70444 2.62497 7.23335 2.78327 6.08048C2.94641 4.89234 3.29167 3.91648 4.0813 3.14332C4.87328 2.36784 5.87687 2.02667 7.09844 1.86586C8.27925 1.71042 9.78456 1.71043 11.6696 1.71045ZM7.29167 8.15045C7.29167 7.68653 7.68342 7.31045 8.16667 7.31045H17.5C17.9832 7.31045 18.375 7.68653 18.375 8.15045C18.375 8.61437 17.9832 8.99045 17.5 8.99045H8.16667C7.68342 8.99045 7.29167 8.61437 7.29167 8.15045ZM7.29167 12.6304C7.29167 12.1665 7.68342 11.7904 8.16667 11.7904H11.6667C12.1499 11.7904 12.5417 12.1665 12.5417 12.6304C12.5417 13.0944 12.1499 13.4704 11.6667 13.4704H8.16667C7.68342 13.4704 7.29167 13.0944 7.29167 12.6304ZM11.9583 18.7904C11.9583 15.543 14.7006 12.9104 18.0833 12.9104C21.4661 12.9104 24.2083 15.543 24.2083 18.7904C24.2083 20.1142 23.7526 21.3359 22.9837 22.3186L25.1169 24.3547C25.4596 24.6819 25.4612 25.2138 25.1206 25.5427C24.7798 25.8717 24.2257 25.8732 23.8831 25.5462L21.7444 23.5049C20.7231 24.237 19.456 24.6705 18.0833 24.6705C14.7006 24.6705 11.9583 22.0379 11.9583 18.7904ZM18.0833 14.5904C15.6671 14.5904 13.7083 16.4708 13.7083 18.7904C13.7083 21.1101 15.6671 22.9904 18.0833 22.9904C20.4996 22.9904 22.4583 21.1101 22.4583 18.7904C22.4583 16.4708 20.4996 14.5904 18.0833 14.5904Z" fill="#DEEA8A"/>
</svg>
