<svg width="28" height="28" viewBox="0 0 28 28" fill="none" xmlns="http://www.w3.org/2000/svg">
<g clip-path="url(#clip0_386_919)">
<path d="M10.7027 14.6595C10.6578 14.4347 9.11109 6.70135 9.06204 6.4563C8.98542 6.07288 8.64871 5.79688 8.25769 5.79688H6.61707C6.22605 5.79688 5.88934 6.07288 5.81272 6.4563C5.7629 6.70551 4.21464 14.4467 4.1721 14.6594C4.08323 15.1037 4.37138 15.5358 4.81561 15.6247C5.25983 15.7135 5.69203 15.4254 5.78084 14.9811L6.30518 12.3594H8.56957L9.09392 14.9812C9.18279 15.4256 9.61514 15.7136 10.0592 15.6247C10.5034 15.5358 10.7915 15.1037 10.7027 14.6595ZM6.63331 10.7188L7.28956 7.4375H7.5852L8.24145 10.7188H6.63331Z" fill="#C2AFFD"/>
<path d="M23.8438 12.3594H21.3828V11.5391C21.3828 11.086 21.0155 10.7188 20.5625 10.7188C20.1095 10.7188 19.7422 11.086 19.7422 11.5391V12.3594H17.2812C16.8282 12.3594 16.4609 12.7267 16.4609 13.1797C16.4609 13.6327 16.8282 14 17.2812 14H17.4798C17.9472 15.51 18.6509 16.6691 19.4253 17.5979C18.795 18.1744 18.1572 18.6472 17.5891 19.1016C17.2354 19.3846 17.178 19.9008 17.4611 20.2546C17.7442 20.6085 18.2605 20.6656 18.614 20.3827C19.1853 19.9257 19.87 19.4178 20.5625 18.7823C21.2554 19.4182 21.9414 19.927 22.511 20.3827C22.8647 20.6657 23.381 20.6083 23.6639 20.2546C23.9469 19.9008 23.8896 19.3846 23.5359 19.1016C22.9692 18.6482 22.3307 18.175 21.6997 17.5979C22.4741 16.6691 23.1778 15.51 23.6452 14H23.8438C24.2968 14 24.6641 13.6327 24.6641 13.1797C24.6641 12.7267 24.2968 12.3594 23.8438 12.3594ZM20.5625 16.3923C20.0389 15.735 19.5678 14.9504 19.2126 13.9945H21.9123C21.5572 14.9504 21.0861 15.735 20.5625 16.3923Z" fill="#C2AFFD"/>
<path d="M25.5391 4.97656H13.7046L13.353 2.15567C13.1994 0.926734 12.1496 0 10.9111 0H2.46094C1.10398 0 0 1.10398 0 2.46094V20.5625C0 21.9195 1.10398 23.0234 2.46094 23.0234H9.37798L9.72513 25.8443C9.87848 27.0708 10.9283 28 12.1671 28H25.5391C26.896 28 28 26.896 28 25.5391V7.4375C28 6.08054 26.896 4.97656 25.5391 4.97656ZM2.46094 21.3828C2.00862 21.3828 1.64062 21.0148 1.64062 20.5625V2.46094C1.64062 2.00862 2.00862 1.64062 2.46094 1.64062H10.9111C11.3239 1.64062 11.6739 1.9495 11.725 2.35889C11.8439 3.31242 13.9786 20.4369 14.0965 21.3828H2.46094ZM11.3052 25.252L11.031 23.0234H13.2318L11.3052 25.252ZM26.3594 25.5391C26.3594 25.9914 25.9914 26.3594 25.5391 26.3594H12.5165L15.6394 22.7471C15.7993 22.5668 15.8709 22.3274 15.8379 22.0895L13.9092 6.61719H25.5391C25.9914 6.61719 26.3594 6.98518 26.3594 7.4375V25.5391Z" fill="#C2AFFD"/>
</g>
<defs>
<clipPath id="clip0_386_919">
<rect width="28" height="28" fill="white"/>
</clipPath>
</defs>
</svg>
