<svg width="241" height="52" viewBox="0 0 241 52" fill="none" xmlns="http://www.w3.org/2000/svg">
<path d="M68.896 31.384C66.576 31.384 64.776 30.864 63.496 29.824C62.232 28.784 61.592 27.296 61.576 25.36H64.768C64.784 26.576 65.144 27.448 65.848 27.976C66.568 28.504 67.616 28.768 68.992 28.768C70.112 28.768 70.968 28.56 71.56 28.144C72.152 27.712 72.448 27.096 72.448 26.296C72.448 25.624 72.192 25.112 71.68 24.76C71.184 24.408 70.272 24.096 68.944 23.824L67.504 23.536C63.84 22.848 62.008 21.12 62.008 18.352C62.008 16.88 62.568 15.712 63.688 14.848C64.808 13.968 66.36 13.528 68.344 13.528C70.6 13.528 72.304 14.008 73.456 14.968C74.624 15.928 75.24 17.272 75.304 19H72.16C72.096 18.024 71.768 17.304 71.176 16.84C70.6 16.376 69.672 16.144 68.392 16.144C67.4 16.144 66.64 16.328 66.112 16.696C65.584 17.064 65.32 17.584 65.32 18.256C65.32 18.944 65.56 19.472 66.04 19.84C66.536 20.208 67.408 20.52 68.656 20.776L70.144 21.064C72.144 21.464 73.584 22.064 74.464 22.864C75.36 23.648 75.808 24.736 75.808 26.128C75.808 27.792 75.2 29.088 73.984 30.016C72.768 30.928 71.072 31.384 68.896 31.384ZM85.4875 16.984L87.3595 13.912H90.9355L84.5275 24.256V31H81.2875V24.256L74.8315 13.912H78.5035L80.3995 17.008C81.9355 19.568 82.7915 21.008 82.9675 21.328C83.3995 20.56 84.2395 19.112 85.4875 16.984ZM103.321 18.376V13.912H106.441V31H102.841L98.089 23.392C96.793 21.36 95.777 19.648 95.041 18.256C95.105 20.048 95.137 22.808 95.137 26.536V31H92.017V13.912H95.617L100.393 21.52C101.817 23.824 102.825 25.536 103.417 26.656C103.353 24.272 103.321 21.512 103.321 18.376ZM124.611 31H121.179L119.835 27.232H112.347L111.027 31H107.691L114.195 13.912H117.987L124.611 31ZM113.979 22.624L113.331 24.472H118.851L118.179 22.624C117.619 21.2 116.915 19.248 116.067 16.768C115.395 18.752 114.699 20.704 113.979 22.624ZM125.861 13.912H133.373C135.277 13.912 136.757 14.416 137.813 15.424C138.885 16.416 139.421 17.768 139.421 19.48C139.421 21.176 138.885 22.528 137.813 23.536C136.757 24.528 135.277 25.024 133.373 25.024H129.101V31H125.861V13.912ZM129.101 22.24H133.229C134.173 22.24 134.893 22.008 135.389 21.544C135.901 21.064 136.157 20.376 136.157 19.48C136.157 18.584 135.901 17.896 135.389 17.416C134.893 16.936 134.173 16.696 133.229 16.696H129.101V22.24ZM139.712 13.912H153.92V16.816H148.448V31H145.184V16.816H139.712V13.912ZM158.796 31H155.556V13.912H158.796V31ZM170.795 31C170.587 29.704 170.195 28.536 169.619 27.496C169.059 26.44 168.331 25.4 167.435 24.376C166.539 25.4 165.803 26.44 165.227 27.496C164.667 28.536 164.283 29.704 164.075 31H160.307C160.547 29.688 160.915 28.512 161.411 27.472C161.907 26.416 162.459 25.496 163.067 24.712C163.691 23.912 164.451 23.04 165.347 22.096C164.067 20.72 163.043 19.456 162.275 18.304C161.523 17.136 160.987 15.768 160.667 14.2H164.387C164.627 15.304 164.995 16.304 165.491 17.2C166.003 18.096 166.651 18.992 167.435 19.888C168.219 18.992 168.859 18.096 169.355 17.2C169.867 16.304 170.243 15.304 170.483 14.2H174.203C173.883 15.768 173.339 17.136 172.571 18.304C171.819 19.456 170.803 20.72 169.523 22.096C170.419 23.04 171.171 23.912 171.779 24.712C172.403 25.496 172.963 26.416 173.459 27.472C173.955 28.512 174.323 29.688 174.563 31H170.795Z" fill="#102F47"/>
<path d="M184.46 13.912V28.096H192.596V31H181.22V13.912H184.46ZM210.017 31H206.585L205.241 27.232H197.753L196.433 31H193.097L199.601 13.912H203.393L210.017 31ZM199.385 22.624L198.737 24.472H204.257L203.585 22.624C203.025 21.2 202.321 19.248 201.473 16.768C200.801 18.752 200.105 20.704 199.385 22.624ZM222.235 22C223.179 22.336 223.907 22.872 224.419 23.608C224.947 24.344 225.211 25.176 225.211 26.104C225.211 27.656 224.699 28.864 223.675 29.728C222.667 30.576 221.195 31 219.259 31H211.267V13.912H218.995C220.787 13.912 222.155 14.32 223.099 15.136C224.043 15.952 224.515 17.016 224.515 18.328C224.515 20.008 223.755 21.232 222.235 22ZM218.755 16.576H214.507V21.04H218.755C219.571 21.04 220.195 20.84 220.627 20.44C221.075 20.024 221.299 19.456 221.299 18.736C221.299 18.064 221.075 17.536 220.627 17.152C220.179 16.768 219.555 16.576 218.755 16.576ZM214.507 28.312H219.091C220.003 28.312 220.699 28.112 221.179 27.712C221.659 27.296 221.899 26.712 221.899 25.96C221.899 24.376 220.963 23.584 219.091 23.584H214.507V28.312ZM233.591 31.384C231.271 31.384 229.471 30.864 228.191 29.824C226.927 28.784 226.287 27.296 226.271 25.36H229.463C229.479 26.576 229.839 27.448 230.543 27.976C231.263 28.504 232.311 28.768 233.687 28.768C234.807 28.768 235.663 28.56 236.255 28.144C236.847 27.712 237.143 27.096 237.143 26.296C237.143 25.624 236.887 25.112 236.375 24.76C235.879 24.408 234.967 24.096 233.639 23.824L232.199 23.536C228.535 22.848 226.703 21.12 226.703 18.352C226.703 16.88 227.263 15.712 228.383 14.848C229.503 13.968 231.055 13.528 233.039 13.528C235.295 13.528 236.999 14.008 238.151 14.968C239.319 15.928 239.935 17.272 239.999 19H236.855C236.791 18.024 236.463 17.304 235.871 16.84C235.295 16.376 234.367 16.144 233.087 16.144C232.095 16.144 231.335 16.328 230.807 16.696C230.279 17.064 230.015 17.584 230.015 18.256C230.015 18.944 230.255 19.472 230.735 19.84C231.231 20.208 232.103 20.52 233.351 20.776L234.839 21.064C236.839 21.464 238.279 22.064 239.159 22.864C240.055 23.648 240.503 24.736 240.503 26.128C240.503 27.792 239.895 29.088 238.679 30.016C237.463 30.928 235.767 31.384 233.591 31.384Z" fill="url(#paint0_linear_1901_290)"/>
<path d="M12.6882 18.8879L25.6634 8.34375" stroke="#2BBBC1" stroke-width="2" stroke-linecap="round"/>
<path d="M30 31.5413L38.1094 25.0739" stroke="#2BBBC1" stroke-width="2" stroke-linecap="round"/>
<path d="M11.8333 23.5L24.351 34.5833" stroke="#2BBBC1" stroke-width="2" stroke-linecap="round"/>
<g filter="url(#filter0_d_1901_290)">
<circle cx="28.8057" cy="5.22222" r="5.22222" fill="url(#paint1_linear_1901_290)"/>
</g>
<g filter="url(#filter1_d_1901_290)">
<circle cx="41.2222" cy="21.2222" r="5.22222" fill="url(#paint2_linear_1901_290)"/>
</g>
<g filter="url(#filter2_d_1901_290)">
<circle cx="9.875" cy="21.5417" r="5.875" fill="url(#paint3_linear_1901_290)"/>
</g>
<g filter="url(#filter3_d_1901_290)">
<circle cx="25.5418" cy="35.9028" r="7.18056" fill="url(#paint4_linear_1901_290)"/>
</g>
<defs>
<filter id="filter0_d_1901_290" x="19.5835" y="0" width="18.4445" height="18.4445" filterUnits="userSpaceOnUse" color-interpolation-filters="sRGB">
<feFlood flood-opacity="0" result="BackgroundImageFix"/>
<feColorMatrix in="SourceAlpha" type="matrix" values="0 0 0 0 0 0 0 0 0 0 0 0 0 0 0 0 0 0 127 0" result="hardAlpha"/>
<feOffset dy="4"/>
<feGaussianBlur stdDeviation="2"/>
<feComposite in2="hardAlpha" operator="out"/>
<feColorMatrix type="matrix" values="0 0 0 0 0.0627451 0 0 0 0 0.184314 0 0 0 0 0.278431 0 0 0 0.2 0"/>
<feBlend mode="normal" in2="BackgroundImageFix" result="effect1_dropShadow_1901_290"/>
<feBlend mode="normal" in="SourceGraphic" in2="effect1_dropShadow_1901_290" result="shape"/>
</filter>
<filter id="filter1_d_1901_290" x="32" y="16" width="18.4445" height="18.4445" filterUnits="userSpaceOnUse" color-interpolation-filters="sRGB">
<feFlood flood-opacity="0" result="BackgroundImageFix"/>
<feColorMatrix in="SourceAlpha" type="matrix" values="0 0 0 0 0 0 0 0 0 0 0 0 0 0 0 0 0 0 127 0" result="hardAlpha"/>
<feOffset dy="4"/>
<feGaussianBlur stdDeviation="2"/>
<feComposite in2="hardAlpha" operator="out"/>
<feColorMatrix type="matrix" values="0 0 0 0 0.0627451 0 0 0 0 0.184314 0 0 0 0 0.278431 0 0 0 0.2 0"/>
<feBlend mode="normal" in2="BackgroundImageFix" result="effect1_dropShadow_1901_290"/>
<feBlend mode="normal" in="SourceGraphic" in2="effect1_dropShadow_1901_290" result="shape"/>
</filter>
<filter id="filter2_d_1901_290" x="0" y="15.6667" width="19.75" height="19.75" filterUnits="userSpaceOnUse" color-interpolation-filters="sRGB">
<feFlood flood-opacity="0" result="BackgroundImageFix"/>
<feColorMatrix in="SourceAlpha" type="matrix" values="0 0 0 0 0 0 0 0 0 0 0 0 0 0 0 0 0 0 127 0" result="hardAlpha"/>
<feOffset dy="4"/>
<feGaussianBlur stdDeviation="2"/>
<feComposite in2="hardAlpha" operator="out"/>
<feColorMatrix type="matrix" values="0 0 0 0 0.0627451 0 0 0 0 0.184314 0 0 0 0 0.278431 0 0 0 0.2 0"/>
<feBlend mode="normal" in2="BackgroundImageFix" result="effect1_dropShadow_1901_290"/>
<feBlend mode="normal" in="SourceGraphic" in2="effect1_dropShadow_1901_290" result="shape"/>
</filter>
<filter id="filter3_d_1901_290" x="14.3612" y="28.7222" width="22.3611" height="22.3611" filterUnits="userSpaceOnUse" color-interpolation-filters="sRGB">
<feFlood flood-opacity="0" result="BackgroundImageFix"/>
<feColorMatrix in="SourceAlpha" type="matrix" values="0 0 0 0 0 0 0 0 0 0 0 0 0 0 0 0 0 0 127 0" result="hardAlpha"/>
<feOffset dy="4"/>
<feGaussianBlur stdDeviation="2"/>
<feComposite in2="hardAlpha" operator="out"/>
<feColorMatrix type="matrix" values="0 0 0 0 0.0627451 0 0 0 0 0.184314 0 0 0 0 0.278431 0 0 0 0.2 0"/>
<feBlend mode="normal" in2="BackgroundImageFix" result="effect1_dropShadow_1901_290"/>
<feBlend mode="normal" in="SourceGraphic" in2="effect1_dropShadow_1901_290" result="shape"/>
</filter>
<linearGradient id="paint0_linear_1901_290" x1="61" y1="22" x2="241" y2="22" gradientUnits="userSpaceOnUse">
<stop stop-color="#008DB0"/>
<stop offset="1" stop-color="#16A38A"/>
</linearGradient>
<linearGradient id="paint1_linear_1901_290" x1="32.0696" y1="9.13889" x2="26.1946" y2="-1.95833" gradientUnits="userSpaceOnUse">
<stop offset="0.291341" stop-color="#2BBBC1"/>
<stop offset="0.864906" stop-color="#79FD66"/>
</linearGradient>
<linearGradient id="paint2_linear_1901_290" x1="37.3056" y1="25.1389" x2="46.4444" y2="16" gradientUnits="userSpaceOnUse">
<stop offset="0.291341" stop-color="#2BBBC1"/>
<stop offset="0.864906" stop-color="#79FD66"/>
</linearGradient>
<linearGradient id="paint3_linear_1901_290" x1="13.1389" y1="15.6667" x2="4" y2="29.375" gradientUnits="userSpaceOnUse">
<stop offset="0.291341" stop-color="#2BBBC1"/>
<stop offset="0.864906" stop-color="#79FD66"/>
</linearGradient>
<linearGradient id="paint4_linear_1901_290" x1="23.5834" y1="28.7222" x2="28.8057" y2="46.3472" gradientUnits="userSpaceOnUse">
<stop offset="0.291341" stop-color="#2BBBC1"/>
<stop offset="0.864906" stop-color="#79FD66"/>
</linearGradient>
</defs>
</svg>
