<svg width="28" height="28" viewBox="0 0 28 28" fill="none" xmlns="http://www.w3.org/2000/svg">
<mask id="mask0_383_643" style="mask-type:luminance" maskUnits="userSpaceOnUse" x="0" y="0" width="28" height="28">
<path d="M27.25 27.25V0.750002H0.75V27.25H27.25Z" fill="white" stroke="white" stroke-width="1.5"/>
</mask>
<g mask="url(#mask0_383_643)">
<path d="M25.0564 7.62167C25.0426 7.31859 25.0348 7.02147 25.0304 6.7278C25.0139 5.60807 24.133 4.6943 23.0149 4.63185C19.5953 4.44082 16.921 3.30338 14.6621 1.10161C14.2841 0.755106 13.7171 0.755106 13.3391 1.10161C11.0802 3.30338 8.40587 4.44082 4.98631 4.63185C3.86823 4.6943 2.98732 5.60807 2.9707 6.72775C2.96638 7.02147 2.95861 7.31859 2.94483 7.62167C2.81916 14.2204 2.63076 23.2642 13.6065 27.0914C13.6589 27.1097 13.7129 27.1243 13.7674 27.1352L13.7679 27.1353C13.9215 27.166 14.0796 27.166 14.2333 27.1353C14.2881 27.1244 14.3424 27.1096 14.3952 27.0912C25.3391 23.264 25.182 14.2517 25.0564 7.62167Z" stroke="#94EAFF" stroke-width="1.5" stroke-miterlimit="10"/>
<path d="M20.1472 14C20.1472 17.3951 17.3949 20.1473 13.9999 20.1473C10.6048 20.1473 7.85254 17.3951 7.85254 14C7.85254 10.6049 10.6048 7.8526 13.9999 7.8526C17.3949 7.8526 20.1472 10.6049 20.1472 14Z" stroke="#94EAFF" stroke-width="1.5" stroke-miterlimit="10"/>
<path d="M16.5827 12.4168L12.7664 16.2332" stroke="#94EAFF" stroke-width="1.5" stroke-miterlimit="10" stroke-linecap="round"/>
<path d="M11.3081 14.7747L12.7665 16.2332" stroke="#94EAFF" stroke-width="1.5" stroke-miterlimit="10" stroke-linecap="round"/>
</g>
</svg>
