<svg width="30" height="30" viewBox="0 0 30 30" fill="none" xmlns="http://www.w3.org/2000/svg">
<g clip-path="url(#clip0_405_1327)">
<path d="M0.0951468 2.7522L2.09591 6.25332C2.16339 6.37163 2.27635 6.45722 2.40845 6.49035L4.27506 6.957L10.6771 13.3591L11.3845 12.6519L4.88224 6.14983C4.81825 6.08563 4.73801 6.04016 4.65015 6.01814L2.85658 5.56816L1.15314 2.58553L2.61359 1.12509L5.59744 2.83018L6.04764 4.62374C6.06945 4.71181 6.11512 4.79226 6.17911 4.85625L12.6814 11.3585L13.3886 10.6511L6.98649 4.24906L6.51984 2.38348C6.48672 2.25118 6.40112 2.13802 6.28281 2.07032L2.78148 0.0697697C2.58622 -0.0413379 2.34055 -0.0084171 2.1813 0.15022L0.180741 2.15098C0.0198405 2.30921 -0.0151378 2.55529 0.0951468 2.7522Z" fill="#79FD66"/>
<path d="M20.8897 9.85757L9.8861 20.8613L9.17871 20.154L20.1825 9.15039L20.8897 9.85757Z" fill="#79FD66"/>
<path d="M7.96012 21.2504C7.86959 21.0998 7.70704 21.0078 7.53133 21.0078H4.53039C4.35488 21.0078 4.19213 21.0998 4.1018 21.2504L2.60123 23.7511C2.50597 23.9096 2.50597 24.1077 2.60123 24.2664L4.1018 26.7671C4.19213 26.9175 4.35488 27.0097 4.53039 27.0097H7.53133C7.70704 27.0097 7.86959 26.9175 7.96012 26.7671L9.46048 24.2664C9.55575 24.1077 9.55575 23.9096 9.46048 23.7511L7.96012 21.2504ZM7.24841 26.0093H4.81351L3.61314 24.0087L4.81351 22.008H7.24841L8.44879 24.0087L7.24841 26.0093Z" fill="#79FD66"/>
<path d="M24.0367 12.005C27.3401 12.0161 30.0273 9.34702 30.0384 6.04363C30.04 5.54076 29.9783 5.03995 29.8546 4.55252C29.788 4.28442 29.5166 4.12126 29.2485 4.18792C29.1604 4.20994 29.0802 4.25541 29.016 4.3194L25.9025 7.43083L23.4322 6.6076L22.6083 4.13792L25.7218 1.02382C25.9171 0.828358 25.9169 0.511701 25.7214 0.316439C25.657 0.252038 25.576 0.206361 25.4873 0.184551C22.2837 -0.626741 19.0292 1.3125 18.218 4.5159C18.0947 5.00189 18.0332 5.50146 18.0348 6.00289C18.0361 6.3967 18.0766 6.78928 18.1564 7.17487L7.20266 18.1284C6.81707 18.0488 6.42449 18.0083 6.03088 18.0068C2.71597 18.0068 0.0288086 20.694 0.0288086 24.0089C0.0288086 27.3236 2.71597 30.0108 6.03088 30.0108C9.34559 30.0108 12.0328 27.3236 12.0328 24.0089C12.0315 23.6151 11.9908 23.2225 11.9112 22.8369L14.5335 20.2146L15.6804 21.3615C15.8758 21.5567 16.1923 21.5567 16.3878 21.3615L16.6378 21.1113C16.8571 20.8934 17.2116 20.8934 17.4309 21.1113C17.6501 21.3298 17.6505 21.6845 17.432 21.9036C17.4318 21.9038 17.4313 21.9042 17.4309 21.9047L17.1809 22.1546C16.9857 22.3499 16.9857 22.6666 17.1809 22.8618L23.1474 28.8283C24.7167 30.412 27.2726 30.4235 28.8563 28.8542C30.4398 27.2849 30.4513 24.7288 28.882 23.1454C28.8736 23.1367 28.8649 23.1281 28.8563 23.1194L22.8898 17.1532C22.6946 16.9579 22.3779 16.9579 22.1826 17.1532L21.9326 17.4031C21.7131 17.6212 21.3588 17.6212 21.1393 17.4031C20.9203 17.1846 20.9197 16.8299 21.1382 16.611C21.1386 16.6106 21.1391 16.6104 21.1393 16.61L21.3895 16.3598C21.5847 16.1645 21.5847 15.8478 21.3895 15.6526L20.2426 14.5057L22.8649 11.8834C23.2505 11.963 23.6431 12.0037 24.0367 12.005ZM26.0019 29.0106C25.6385 29.01 25.2782 28.9443 24.9381 28.8166L28.8444 24.9101C29.4339 26.4782 28.6407 28.2271 27.0726 28.8166C26.7304 28.9452 26.3677 29.011 26.0019 29.0106ZM20.3356 16.0112C19.7817 16.6719 19.8685 17.6566 20.5292 18.2103C21.1098 18.6969 21.9561 18.6965 22.5361 18.2089L28.1491 23.8268C28.21 23.8879 28.267 23.9523 28.3222 24.0178L24.0458 28.2942C23.9801 28.2392 23.9157 28.1822 23.8546 28.1211L18.2373 22.5034C18.7912 21.8427 18.7044 20.858 18.0437 20.3043C17.463 19.8175 16.6166 19.8181 16.0365 20.3055L15.2364 19.5053L19.5352 15.2129L20.3356 16.0112ZM22.3553 10.9807L11.0089 22.3248C10.8844 22.4491 10.8344 22.6295 10.8768 22.8001C11.563 25.4949 9.93467 28.2357 7.23969 28.9217C4.54492 29.6079 1.80406 27.9796 1.11787 25.2846C0.431882 22.5898 2.06023 19.849 4.7552 19.1628C5.5704 18.9554 6.42449 18.9554 7.23969 19.1628C7.41026 19.2045 7.5903 19.1545 7.71499 19.0309L19.0587 7.68658C19.1829 7.5623 19.2329 7.38186 19.1901 7.21149C18.5087 4.5482 20.1152 1.83676 22.7785 1.1551C23.2818 1.0265 23.8023 0.977118 24.3208 1.00942L21.6825 3.64885C21.5485 3.78259 21.5016 3.98073 21.5615 4.16035L22.5616 7.16149C22.6116 7.31067 22.7289 7.42795 22.8783 7.47753L25.8794 8.47791C26.0589 8.53779 26.257 8.49108 26.3909 8.35734L29.0293 5.71895C29.0353 5.81441 29.0384 5.90886 29.0384 6.00289C29.0524 8.75115 26.836 10.9904 24.0877 11.0046C23.6628 11.0066 23.2394 10.9544 22.8279 10.849C22.6573 10.8064 22.4769 10.8562 22.3526 10.9805H22.3553V10.9807Z" fill="#79FD66"/>
<path d="M25.8915 25.1558L25.1841 25.8632L20.1826 20.8617L20.8898 20.1543L25.8915 25.1558Z" fill="#79FD66"/>
</g>
<defs>
<clipPath id="clip0_405_1327">
<rect width="30" height="30" fill="white"/>
</clipPath>
</defs>
</svg>
