<svg width="25" height="24" viewBox="0 0 25 24" fill="none" xmlns="http://www.w3.org/2000/svg">
<path d="M4.46112 19.317C4.35456 19.317 4.24721 19.2953 4.14581 19.2504C3.86268 19.1256 3.68002 18.8453 3.68002 18.5357V14.9167H2.60252C1.16735 14.9167 0 13.7645 0 12.3482V2.56861C0 1.15219 1.16735 0 2.60252 0H15.8415C17.2765 0 18.4439 1.15219 18.4439 2.56845V12.348C18.4439 13.7643 17.2764 14.9165 15.8415 14.9165H9.58678L4.98784 19.1126C4.84112 19.2467 4.65237 19.317 4.46112 19.317ZM2.60252 1.56251C2.02908 1.56251 1.56251 2.01376 1.56251 2.56845V12.348C1.56251 12.9027 2.02908 13.354 2.60252 13.354H4.46128C4.89269 13.354 5.24253 13.7038 5.24253 14.1352V16.7651L8.75724 13.5582C8.90115 13.4268 9.08896 13.354 9.28381 13.354H15.8414C16.4148 13.354 16.8812 12.9027 16.8812 12.348V2.56861C16.8812 2.01392 16.4148 1.56267 15.8414 1.56267L2.60252 1.56251Z" fill="#C2AFFD"/>
<path d="M20.5388 23.0319C20.3475 23.0319 20.1588 22.9618 20.0121 22.8277L15.4131 18.6316H11.0247C10.5933 18.6316 10.2434 18.2817 10.2434 17.8503C10.2434 17.4189 10.5933 17.0691 11.0247 17.0691H15.7161C15.9109 17.0691 16.0988 17.1419 16.2427 17.2733L19.7574 20.4802V17.8503C19.7574 17.4189 20.1071 17.0691 20.5386 17.0691H22.3974C22.9708 17.0691 23.4372 16.6178 23.4372 16.0631V8.31479C23.4372 7.7601 22.9708 7.30885 22.3974 7.30885H17.905C17.4735 7.30885 17.1238 6.959 17.1238 6.52759C17.1238 6.09618 17.4735 5.74634 17.905 5.74634H22.3974C23.8324 5.74634 24.9998 6.89869 24.9998 8.31479V16.0631C24.9998 17.4794 23.8322 18.6316 22.3974 18.6316H21.3199V22.2507C21.3199 22.5602 21.1372 22.8405 20.8541 22.9654C20.7527 23.01 20.6453 23.0319 20.5388 23.0319Z" fill="#C2AFFD"/>
<path d="M13.9232 6.37586H4.5481C4.11669 6.37586 3.76685 6.02602 3.76685 5.59461C3.76685 5.1632 4.11669 4.81335 4.5481 4.81335H13.9232C14.3547 4.81335 14.7044 5.1632 14.7044 5.59461C14.7044 6.02602 14.3547 6.37586 13.9232 6.37586Z" fill="#C2AFFD"/>
<path d="M11.8937 10.0994H4.54834C4.11694 10.0994 3.76709 9.74953 3.76709 9.31812C3.76709 8.88671 4.11694 8.53687 4.54834 8.53687H11.8937C12.3251 8.53687 12.675 8.88671 12.675 9.31812C12.675 9.74953 12.3253 10.0994 11.8937 10.0994Z" fill="#C2AFFD"/>
</svg>
