<svg width="28" height="28" viewBox="0 0 28 28" fill="none" xmlns="http://www.w3.org/2000/svg">
<g clip-path="url(#clip0_493_470)">
<path d="M26.0644 10.7354C25.833 10.5068 25.5573 10.328 25.2543 10.21C24.9512 10.092 24.6271 10.0373 24.3021 10.0494C24.3141 9.72258 24.2589 9.39674 24.1398 9.0921C24.0208 8.78746 23.8404 8.51052 23.61 8.27844L18.4624 3.12731C17.1153 1.77649 15.3129 0.976486 13.4075 0.883609C11.502 0.790732 9.63042 1.41166 8.15835 2.62506C7.95498 2.82185 7.76935 3.03618 7.6036 3.26556C7.49806 3.39978 7.44906 3.56988 7.46704 3.73968C7.48501 3.90947 7.56854 4.06555 7.69985 4.17469C8.08873 4.47612 8.57904 4.61562 9.06835 4.56406C9.93084 4.40835 10.8206 4.54249 11.5989 4.94556C12.7364 5.62981 13.2946 6.22569 13.2675 6.72094L13.1109 6.87581C12.6896 7.30452 12.4435 7.87504 12.4209 8.47565C12.3982 9.07627 12.6006 9.66371 12.9884 10.1229L13.2369 10.3723L1.51448 20.5967C0.942911 21.0948 0.537087 21.7556 0.351292 22.4906C0.165497 23.2257 0.208592 23.9999 0.474812 24.7098C0.741031 25.4197 1.21768 26.0314 1.84099 26.463C2.46431 26.8946 3.20456 27.1256 3.96273 27.1251C4.00473 27.1251 4.04673 27.1251 4.08873 27.1251C4.59834 27.1071 5.09887 26.9849 5.5594 26.7659C6.01992 26.547 6.43065 26.2359 6.76623 25.8519L16.9923 14.1226L17.3739 14.5049C17.8248 14.9543 18.4357 15.2061 19.0722 15.2049C19.0924 15.2049 19.1116 15.2006 19.1317 15.1997C19.1317 15.2224 19.1256 15.2443 19.1256 15.2671C19.1241 15.5821 19.1852 15.8944 19.3053 16.1856C19.4255 16.4769 19.6024 16.7414 19.8256 16.9637L20.8249 17.9516C21.275 18.3958 21.882 18.6449 22.5145 18.6449C23.1469 18.6449 23.754 18.3958 24.2041 17.9516L27.0557 15.1174C27.2793 14.8949 27.4568 14.6304 27.5778 14.3391C27.6989 14.0478 27.7612 13.7354 27.7612 13.4199C27.7612 13.1045 27.6989 12.7921 27.5778 12.5008C27.4568 12.2095 27.2793 11.945 27.0557 11.7224L26.0644 10.7354ZM5.77485 24.9857C5.55858 25.2374 5.29265 25.4418 4.99372 25.5859C4.69479 25.73 4.3693 25.8109 4.03767 25.8234C3.70603 25.8359 3.37539 25.7797 3.06647 25.6584C2.75755 25.5372 2.47701 25.3534 2.24243 25.1186C2.00786 24.8839 1.8243 24.6032 1.70327 24.2942C1.58223 23.9852 1.52633 23.6545 1.53907 23.3228C1.55181 22.9912 1.6329 22.6658 1.77728 22.367C1.92166 22.0682 2.12621 21.8024 2.3781 21.5863L14.1749 11.3024L15.07 12.1967L16.0657 13.1924L5.77485 24.9857ZM20.3375 13.0857L19.8457 13.5783C19.8218 13.594 19.799 13.6112 19.7775 13.6299C19.5706 13.8105 19.3029 13.9057 19.0285 13.8963C18.7541 13.8869 18.4936 13.7735 18.2996 13.5792L17.4246 12.7042L14.6675 9.94706C14.6675 9.94269 14.657 9.94094 14.6517 9.93656L13.9701 9.25581C13.8028 9.04779 13.7179 8.78547 13.7316 8.51888C13.7453 8.25228 13.8567 8.00006 14.0445 7.81031L14.342 7.51369C14.4204 7.43611 14.4777 7.3397 14.5082 7.23369C15.0236 5.47756 12.9595 4.23594 12.2805 3.82731C11.5419 3.40239 10.7007 3.1884 9.84885 3.20869C9.76135 3.20869 9.66948 3.20869 9.58635 3.21394C10.8086 2.42385 12.2649 2.07708 13.7121 2.23156C15.1592 2.38604 16.5096 3.03241 17.5375 4.06269L22.6895 9.21294C22.8793 9.40091 22.9932 9.65229 23.0094 9.91897C23.0255 10.1857 22.9428 10.4489 22.777 10.6584L20.397 13.0201C20.3766 13.0401 20.3576 13.0614 20.3401 13.0839L20.3375 13.0857ZM26.1247 14.1882L23.2749 17.0188C23.0711 17.2202 22.7962 17.3332 22.5097 17.3332C22.2232 17.3332 21.9482 17.2202 21.7445 17.0188L20.7531 16.0336C20.6518 15.9337 20.5715 15.8146 20.5168 15.6833C20.4622 15.5519 20.4342 15.4111 20.4346 15.2688C20.4332 15.0399 20.5066 14.8169 20.6437 14.6336L20.6848 14.5924L21.3245 13.9519L23.6712 11.6061C23.8787 11.4318 24.1436 11.3411 24.4143 11.3518C24.685 11.3625 24.942 11.4737 25.1351 11.6638L26.1291 12.6526C26.2302 12.753 26.3104 12.8724 26.3651 13.004C26.4198 13.1355 26.448 13.2766 26.448 13.4191C26.448 13.5615 26.4198 13.7026 26.3651 13.8342C26.3104 13.9657 26.2302 14.0851 26.1291 14.1856L26.1247 14.1882Z" fill="#FFBD92"/>
</g>
<defs>
<clipPath id="clip0_493_470">
<rect width="28" height="28" fill="white"/>
</clipPath>
</defs>
</svg>
