<svg width="28" height="28" viewBox="0 0 28 28" fill="none" xmlns="http://www.w3.org/2000/svg">
<path fill-rule="evenodd" clip-rule="evenodd" d="M14.2708 3.64371C8.43943 3.64371 3.7122 8.18185 3.7122 13.7799C3.7122 19.378 8.43943 23.9161 14.2708 23.9161C14.6277 23.9161 14.9803 23.8991 15.3276 23.8661C15.7981 23.8212 16.2174 24.151 16.2641 24.6027C16.3109 25.0543 15.9673 25.4568 15.4968 25.5018C15.0933 25.5402 14.6843 25.5598 14.2708 25.5598C7.4938 25.5598 2 20.2858 2 13.7799C2 7.27405 7.4938 2 14.2708 2C21.0477 2 26.5415 7.27405 26.5415 13.7799C26.5415 14.1769 26.5211 14.5696 26.481 14.9569C26.4342 15.4086 26.0149 15.7385 25.5444 15.6935C25.0739 15.6487 24.7305 15.2462 24.7771 14.7945C24.8116 14.4611 24.8293 14.1226 24.8293 13.7799C24.8293 8.18185 20.102 3.64371 14.2708 3.64371Z" fill="#DEEA8A"/>
<path fill-rule="evenodd" clip-rule="evenodd" d="M14.2608 9.12271C13.1543 9.12271 12.2593 9.98238 12.2593 11.0404C12.2593 12.0984 13.1543 12.958 14.2608 12.958C15.3675 12.958 16.2625 12.0984 16.2625 11.0404C16.2625 9.98238 15.3675 9.12271 14.2608 9.12271ZM10.547 11.0404C10.547 9.07238 12.2109 7.479 14.2608 7.479C16.3108 7.479 17.9747 9.07238 17.9747 11.0404C17.9747 13.0083 16.3108 14.6017 14.2608 14.6017C12.2109 14.6017 10.547 13.0083 10.547 11.0404ZM15.2879 18.0932C13.2746 17.8099 11.1429 18.4291 9.75313 19.8264C9.42663 20.1547 8.88472 20.1668 8.54275 19.8534C8.20078 19.5399 8.18823 19.0197 8.51474 18.6914C10.3267 16.8695 13.0319 16.1145 15.5361 16.4668C16.004 16.5327 16.3276 16.9501 16.2591 17.3991C16.1905 17.8483 15.7557 18.159 15.2879 18.0932Z" fill="#DEEA8A"/>
<path fill-rule="evenodd" clip-rule="evenodd" d="M21.6901 17.8892C19.9564 17.8892 18.5511 19.2384 18.5511 20.9027C18.5511 22.567 19.9564 23.9161 21.6901 23.9161C23.4238 23.9161 24.8291 22.567 24.8291 20.9027C24.8291 19.2384 23.4238 17.8892 21.6901 17.8892ZM16.8389 20.9027C16.8389 18.3306 19.0108 16.2455 21.6901 16.2455C24.3693 16.2455 26.5413 18.3306 26.5413 20.9027C26.5413 23.4747 24.3693 25.5598 21.6901 25.5598C19.0108 25.5598 16.8389 23.4747 16.8389 20.9027Z" fill="#DEEA8A"/>
</svg>
