<svg width="28" height="28" viewBox="0 0 28 28" fill="none" xmlns="http://www.w3.org/2000/svg">
<path d="M24.5938 13.4955V10.6646C24.5938 9.27385 23.4876 8.1373 22.1094 8.08768V6.3501C22.1094 5.44503 21.3734 4.7087 20.4688 4.7087H15.952L15.3687 3.08666C15.22 2.67303 14.9189 2.3425 14.5211 2.15599C14.1232 1.96943 13.6767 1.94955 13.2638 2.0999L5.0675 5.08448C4.65509 5.23465 4.32608 5.53662 4.14102 5.93478C3.95595 6.33293 3.93716 6.77925 4.08814 7.19157L4.41744 8.09083C3.07048 8.17416 2 9.29641 2 10.6646V23.4207C2 24.8429 3.15655 26 4.57812 26H22.0156C23.4372 26 24.5938 24.8429 24.5938 23.4207V20.496C25.3877 20.3819 26 19.6971 26 18.8716V15.1199C26 14.2944 25.3877 13.6096 24.5938 13.4955ZM24.5938 18.8716C24.5938 19.0009 24.4886 19.1061 24.3594 19.1061H20.6094C19.4463 19.1061 18.5 18.1594 18.5 16.9957C18.5 15.8321 19.4463 14.8854 20.6094 14.8854H24.3594C24.4886 14.8854 24.5938 14.9906 24.5938 15.1199V18.8716ZM5.40856 6.70759C5.37945 6.6281 5.40078 6.56099 5.41611 6.52802C5.43144 6.4951 5.46898 6.4355 5.54848 6.40656L13.7448 3.42198C13.8244 3.39304 13.8914 3.41457 13.9244 3.43C13.9573 3.44543 14.0168 3.48323 14.0455 3.56295L14.4575 4.70874H14.1406C13.236 4.70874 12.5 5.44508 12.5 6.35014V8.08534H5.91308L5.40856 6.70759ZM20.7031 6.3501V8.08529H13.9062V6.3501C13.9062 6.2208 14.0114 6.11561 14.1406 6.11561H20.4688C20.598 6.11561 20.7031 6.2208 20.7031 6.3501ZM22.0156 24.5931H4.57812C3.93195 24.5931 3.40625 24.0671 3.40625 23.4207V10.6646C3.40625 10.0182 3.93195 9.49221 4.57812 9.49221H22.0156C22.6618 9.49221 23.1875 10.0182 23.1875 10.6646V13.4785H20.6094C18.6709 13.4785 17.0938 15.0563 17.0938 16.9957C17.0938 18.9352 18.6709 20.513 20.6094 20.513H23.1875V23.4207C23.1875 24.0671 22.6618 24.5931 22.0156 24.5931Z" fill="#FFBD92"/>
</svg>
