<svg width="47" height="47" viewBox="0 0 47 47" fill="none" xmlns="http://www.w3.org/2000/svg">
<g clip-path="url(#clip0_241_42)">
<mask id="mask0_241_42" style="mask-type:luminance" maskUnits="userSpaceOnUse" x="0" y="0" width="47" height="47">
<path d="M0 3.8147e-06H47V47H0V3.8147e-06Z" fill="white"/>
</mask>
<g mask="url(#mask0_241_42)">
<path d="M6.42578 8.26172C6.42578 11.0501 8.68628 13.3105 11.4746 13.3105C14.2629 13.3105 16.5234 11.0501 16.5234 8.26172C16.5234 5.4733 14.2629 3.21289 11.4746 3.21289C8.68628 3.21289 6.42578 5.4733 6.42578 8.26172Z" stroke="white" stroke-width="2" stroke-miterlimit="10" stroke-linecap="round" stroke-linejoin="round"/>
<path d="M11.4746 45.623V34.4238" stroke="white" stroke-width="2" stroke-miterlimit="10" stroke-linecap="round" stroke-linejoin="round"/>
<path d="M9.63867 13.3105H26.3457C27.8666 13.3105 29.0996 14.5436 29.0996 16.0645C29.0996 17.5853 27.8666 18.8184 26.3457 18.8184H16.9824V45.623H5.9668V31.6699H3.21289C2.1989 31.6699 1.37695 30.848 1.37695 29.834V21.5723C1.37695 17.0094 5.07582 13.3105 9.63867 13.3105Z" stroke="white" stroke-width="2" stroke-miterlimit="10" stroke-linecap="round" stroke-linejoin="round"/>
<path d="M29.0996 45.623V1.37696" stroke="white" stroke-width="2" stroke-miterlimit="10" stroke-linecap="round" stroke-linejoin="round"/>
<path d="M45.623 13.3105H29.0996V1.37695H45.623L42.8691 7.34375L45.623 13.3105Z" stroke="white" stroke-width="2" stroke-miterlimit="10" stroke-linecap="round" stroke-linejoin="round"/>
</g>
</g>
<defs>
<clipPath id="clip0_241_42">
<rect width="47" height="47" fill="white"/>
</clipPath>
</defs>
</svg>
