<svg width="26" height="26" viewBox="0 0 26 26" fill="none" xmlns="http://www.w3.org/2000/svg">
<path d="M23.5625 23.2917H2.4375C1.08875 23.2917 0 22.203 0 20.8542V6.22925C0 4.8805 1.08875 3.79175 2.4375 3.79175H23.5625C24.9112 3.79175 26 4.8805 26 6.22925V20.8542C26 22.203 24.9112 23.2917 23.5625 23.2917ZM2.4375 5.41675C1.9825 5.41675 1.625 5.77425 1.625 6.22925V20.8542C1.625 21.3092 1.9825 21.6667 2.4375 21.6667H23.5625C24.0175 21.6667 24.375 21.3092 24.375 20.8542V6.22925C24.375 5.77425 24.0175 5.41675 23.5625 5.41675H2.4375Z" fill="white"/>
<path d="M13.0001 16.7265C11.8626 16.7265 10.8226 16.2715 10.0426 15.4428L1.51131 6.37526C1.20256 6.05026 1.21881 5.53026 1.54381 5.22151C1.86881 4.91276 2.38881 4.92901 2.69756 5.25401L11.2288 14.3215C12.1551 15.3128 13.8451 15.3128 14.7713 14.3215L23.3026 5.27026C23.6113 4.94526 24.1313 4.92901 24.4563 5.23776C24.7813 5.54651 24.7976 6.06651 24.4888 6.39151L15.9576 15.459C15.1776 16.2878 14.1376 16.7428 13.0001 16.7428V16.7265Z" fill="white"/>
</svg>
