<svg width="20" height="20" viewBox="0 0 20 20" fill="none" xmlns="http://www.w3.org/2000/svg">
<path d="M18.125 17.9165H1.875C0.8375 17.9165 0 17.079 0 16.0415V4.7915C0 3.754 0.8375 2.9165 1.875 2.9165H18.125C19.1625 2.9165 20 3.754 20 4.7915V16.0415C20 17.079 19.1625 17.9165 18.125 17.9165ZM1.875 4.1665C1.525 4.1665 1.25 4.4415 1.25 4.7915V16.0415C1.25 16.3915 1.525 16.6665 1.875 16.6665H18.125C18.475 16.6665 18.75 16.3915 18.75 16.0415V4.7915C18.75 4.4415 18.475 4.1665 18.125 4.1665H1.875Z" fill="#36C1B1"/>
<path d="M10.0003 12.8668C9.12527 12.8668 8.32527 12.5168 7.72527 11.8793L1.16277 4.90427C0.92527 4.65427 0.93777 4.25427 1.18777 4.01677C1.43777 3.77927 1.83777 3.79177 2.07527 4.04177L8.63777 11.0168C9.35027 11.7793 10.6503 11.7793 11.3628 11.0168L17.9253 4.05427C18.1628 3.80427 18.5628 3.79177 18.8128 4.02927C19.0628 4.26677 19.0753 4.66677 18.8378 4.91677L12.2753 11.8918C11.6753 12.5293 10.8753 12.8793 10.0003 12.8793V12.8668Z" fill="#36C1B1"/>
</svg>
