<svg width="47" height="47" viewBox="0 0 47 47" fill="none" xmlns="http://www.w3.org/2000/svg">
<g clip-path="url(#clip0_241_40)">
<path d="M12.5046 47H34.4956C34.6904 47 34.8772 46.9226 35.0149 46.7849C35.1526 46.6472 35.23 46.4604 35.23 46.2656V41.5202C35.2266 38.7088 34.1402 36.0068 32.1967 33.9754C30.2532 31.944 27.6018 30.7394 24.7933 30.6118C26.4252 30.2905 27.879 29.3734 28.8718 28.0389C29.8645 26.7045 30.325 25.0484 30.1636 23.3931C30.0022 21.7377 29.2305 20.2017 27.9987 19.0842C26.7669 17.9667 25.1633 17.3476 23.5001 17.3476C21.8369 17.3476 20.2333 17.9667 19.0015 19.0842C17.7697 20.2017 16.998 21.7377 16.8366 23.3931C16.6752 25.0484 17.1357 26.7045 18.1284 28.0389C19.1211 29.3734 20.575 30.2905 22.2069 30.6118C19.3984 30.7394 16.747 31.944 14.8035 33.9754C12.8599 36.0068 11.7736 38.7088 11.7702 41.5202V46.2656C11.7702 46.4604 11.8476 46.6472 11.9853 46.7849C12.123 46.9226 12.3098 47 12.5046 47ZM22.7725 32.0693H24.2277L25.2855 39.6945L23.5001 41.824L21.7146 39.6943L22.7725 32.0693ZM18.2737 24.0431C18.2737 23.0095 18.5803 21.999 19.1546 21.1396C19.7289 20.2801 20.5451 19.6102 21.5001 19.2147C22.4551 18.8191 23.5059 18.7156 24.5198 18.9173C25.5336 19.119 26.4648 19.6167 27.1957 20.3477C27.9266 21.0786 28.4244 22.0098 28.626 23.0237C28.8277 24.0375 28.7242 25.0883 28.3286 26.0433C27.933 26.9983 27.2632 27.8145 26.4037 28.3888C25.5442 28.9631 24.5338 29.2696 23.5001 29.2696C22.1144 29.268 20.786 28.7168 19.8062 27.737C18.8264 26.7572 18.2753 25.4288 18.2737 24.0431ZM13.2389 41.5202C13.2418 39.2595 14.0537 37.0746 15.5276 35.3606C17.0016 33.6465 19.0403 32.5166 21.275 32.1752L20.215 39.8156C20.2009 39.9173 20.2083 40.0208 20.2366 40.1194C20.265 40.2181 20.3137 40.3097 20.3796 40.3884L22.9374 43.4388C23.0063 43.521 23.0924 43.5871 23.1896 43.6325C23.2868 43.6778 23.3928 43.7013 23.5001 43.7013C23.6074 43.7013 23.7133 43.6778 23.8106 43.6325C23.9078 43.5871 23.9939 43.521 24.0628 43.4388L26.6204 40.3884C26.6864 40.3097 26.7351 40.2181 26.7635 40.1195C26.7919 40.0208 26.7992 39.9173 26.7851 39.8156L25.7252 32.1752C27.9599 32.5166 29.9987 33.6465 31.4726 35.3606C32.9465 37.0746 33.7584 39.2595 33.7612 41.5202V45.5312H30.6585V40.4206C30.6585 40.2259 30.5811 40.0391 30.4434 39.9013C30.3057 39.7636 30.1189 39.6862 29.9241 39.6862C29.7294 39.6862 29.5426 39.7636 29.4048 39.9013C29.2671 40.0391 29.1897 40.2259 29.1897 40.4206V45.5312H17.8107V40.4206C17.8107 40.2259 17.7333 40.0391 17.5956 39.9013C17.4579 39.7636 17.2711 39.6862 17.0763 39.6862C16.8816 39.6862 16.6948 39.7636 16.557 39.9013C16.4193 40.0391 16.3419 40.2259 16.3419 40.4206V45.5312H13.2392L13.2389 41.5202ZM15.7389 5.5872C15.5976 5.60195 15.4637 5.65736 15.3532 5.74673C15.2428 5.83609 15.1606 5.95557 15.1167 6.09068C15.0728 6.2258 15.0691 6.37074 15.1059 6.50795C15.1427 6.64516 15.2185 6.76874 15.3242 6.86372L19.0879 10.2485L18.0328 15.1985C18.0032 15.3374 18.0145 15.482 18.0654 15.6146C18.1163 15.7472 18.2045 15.8622 18.3194 15.9457C18.4343 16.0292 18.571 16.0776 18.7128 16.085C18.8547 16.0924 18.9956 16.0585 19.1186 15.9874L23.5001 13.4543L27.882 15.9879C28.005 16.059 28.1459 16.0929 28.2878 16.0855C28.4296 16.0781 28.5663 16.0297 28.6812 15.9462C28.7961 15.8627 28.8844 15.7477 28.9352 15.6151C28.9861 15.4824 28.9974 15.3379 28.9678 15.199L27.9128 10.2485L31.6759 6.86372C31.7815 6.76875 31.8574 6.64517 31.8942 6.50797C31.931 6.37077 31.9273 6.22583 31.8834 6.09072C31.8395 5.95561 31.7573 5.83613 31.6469 5.74676C31.5365 5.65739 31.4025 5.60196 31.2612 5.5872L26.2273 5.06102L24.1711 0.436015C24.1134 0.306231 24.0193 0.195965 23.9002 0.118577C23.7811 0.041189 23.6421 0 23.5001 0C23.3581 0 23.2191 0.041189 23.1 0.118577C22.9809 0.195965 22.8868 0.306231 22.8291 0.436015L20.7728 5.06102L15.7389 5.5872ZM21.9426 6.04554L23.5001 2.54211L25.0576 6.04554C25.11 6.16346 25.1926 6.26548 25.297 6.34134C25.4014 6.41719 25.5239 6.4642 25.6523 6.47763L29.4656 6.8763L26.6149 9.44028C26.519 9.52658 26.4475 9.63665 26.4076 9.75938C26.3677 9.88212 26.3609 10.0132 26.3878 10.1394L27.187 13.8892L23.8673 11.9703C23.7555 11.9057 23.6288 11.8717 23.4997 11.8717C23.3707 11.8717 23.2439 11.9057 23.1322 11.9703L19.8128 13.8888L20.612 10.139C20.6389 10.0128 20.6321 9.88175 20.5922 9.75901C20.5523 9.63628 20.4808 9.52622 20.3849 9.43991L17.5346 6.8763L21.3479 6.47763C21.4763 6.4642 21.5988 6.41719 21.7032 6.34134C21.8076 6.26548 21.8902 6.16346 21.9426 6.04554ZM46.5441 12.0979C46.5002 11.9628 46.4181 11.8433 46.3077 11.7539C46.1973 11.6646 46.0633 11.6092 45.922 11.5944L40.8881 11.0681L38.8318 6.44311C38.7741 6.31333 38.68 6.20306 38.5609 6.12567C38.4418 6.04829 38.3028 6.0071 38.1608 6.0071C38.0187 6.0071 37.8798 6.04829 37.7607 6.12567C37.6416 6.20306 37.5475 6.31333 37.4897 6.44311L35.4337 11.0681L30.3997 11.5944C30.2584 11.6091 30.1245 11.6646 30.0141 11.7539C29.9036 11.8433 29.8215 11.9628 29.7776 12.0978C29.7337 12.2329 29.73 12.3779 29.7668 12.5151C29.8036 12.6523 29.8794 12.7758 29.985 12.8708L33.7487 16.2555L32.6935 21.2057C32.6639 21.3446 32.6752 21.4892 32.7261 21.6218C32.777 21.7544 32.8652 21.8694 32.9801 21.9529C33.095 22.0364 33.2317 22.0848 33.3735 22.0922C33.5154 22.0996 33.6563 22.0657 33.7793 21.9946L38.1612 19.4615L42.5432 21.9951C42.6661 22.0662 42.8071 22.1001 42.9489 22.0927C43.0908 22.0853 43.2275 22.0369 43.3424 21.9534C43.4573 21.8699 43.5455 21.7549 43.5964 21.6222C43.6472 21.4896 43.6586 21.3451 43.6289 21.2062L42.5739 16.2559L46.3376 12.8713C46.4432 12.7762 46.5189 12.6525 46.5556 12.5152C46.5923 12.378 46.5882 12.233 46.5441 12.0979ZM41.2757 15.4473C41.1797 15.5336 41.1082 15.6437 41.0683 15.7664C41.0284 15.8892 41.0216 16.0203 41.0485 16.1465L41.8478 19.8963L38.5284 17.9778C38.4167 17.9132 38.2899 17.8792 38.1609 17.8792C38.0318 17.8792 37.905 17.9132 37.7933 17.9778L34.4739 19.8963L35.2732 16.1465C35.3001 16.0203 35.2933 15.8892 35.2534 15.7664C35.2135 15.6437 35.142 15.5336 35.046 15.4473L32.1954 12.8835L36.0087 12.4848C36.137 12.4714 36.2596 12.4244 36.364 12.3485C36.4684 12.2727 36.5509 12.1706 36.6034 12.0527L38.1609 8.5493L39.7186 12.0529C39.771 12.1708 39.8536 12.2729 39.958 12.3487C40.0623 12.4246 40.1849 12.4716 40.3132 12.485L44.1266 12.8837L41.2757 15.4473ZM3.65801 21.9528C3.77291 22.0363 3.90956 22.0847 4.05141 22.0921C4.19326 22.0996 4.33421 22.0657 4.45719 21.9946L8.83912 19.4615L13.2209 21.9951C13.3439 22.0662 13.4849 22.1001 13.6268 22.0927C13.7686 22.0853 13.9053 22.037 14.0202 21.9535C14.1352 21.87 14.2234 21.7549 14.2743 21.6223C14.3251 21.4896 14.3364 21.3451 14.3068 21.2062L13.2517 16.2559L17.0154 12.8713C17.1208 12.7763 17.1965 12.6527 17.2332 12.5156C17.2699 12.3785 17.2661 12.2336 17.2223 12.0986C17.1784 11.9636 17.0963 11.8443 16.986 11.7549C16.8757 11.6656 16.7418 11.6101 16.6006 11.5953L11.5665 11.0681L9.51024 6.44311C9.45254 6.31333 9.35843 6.20306 9.23933 6.12567C9.12023 6.04829 8.98124 6.0071 8.83921 6.0071C8.69717 6.0071 8.55818 6.04829 8.43908 6.12567C8.31998 6.20306 8.22588 6.31333 8.16817 6.44311L6.11192 11.0681L1.07797 11.5944C0.936689 11.6091 0.802726 11.6646 0.692308 11.7539C0.581891 11.8433 0.499759 11.9628 0.455865 12.0978C0.41197 12.2329 0.408197 12.3779 0.445002 12.5151C0.481807 12.6523 0.55761 12.7758 0.663228 12.8708L4.4269 16.2555L3.37142 21.2057C3.34182 21.3446 3.35315 21.4891 3.40401 21.6217C3.45488 21.7543 3.54311 21.8694 3.65801 21.9528ZM2.8736 12.8833L6.68685 12.4846C6.81519 12.4712 6.93773 12.4242 7.04213 12.3483C7.14652 12.2725 7.22909 12.1705 7.28151 12.0525L8.83912 8.5493L10.3966 12.0529C10.4491 12.1708 10.5316 12.2729 10.636 12.3487C10.7404 12.4246 10.8629 12.4716 10.9913 12.485L14.8046 12.8837L11.954 15.4475C11.858 15.5338 11.7865 15.6438 11.7466 15.7666C11.7067 15.8894 11.6999 16.0204 11.7268 16.1467L12.526 19.8965L9.20658 17.9779C9.09486 17.9134 8.96811 17.8794 8.83907 17.8794C8.71003 17.8794 8.58328 17.9134 8.47156 17.9779L5.15219 19.8965L5.95146 16.1467C5.97838 16.0204 5.97155 15.8894 5.93166 15.7666C5.89178 15.6438 5.82024 15.5338 5.72426 15.4475L2.8736 12.8833Z" fill="white"/>
</g>
<defs>
<clipPath id="clip0_241_40">
<rect width="47" height="47" fill="white"/>
</clipPath>
</defs>
</svg>
