<svg width="13" height="13" viewBox="0 0 13 13" fill="none" xmlns="http://www.w3.org/2000/svg">
<path d="M0.843693 10.8438C0.5508 11.1367 0.5508 11.6116 0.843693 11.9045C1.13659 12.1974 1.61146 12.1974 1.90435 11.9045L0.843693 10.8438ZM12.624 0.874176C12.624 0.459962 12.2882 0.124176 11.874 0.124176L5.12402 0.124176C4.70981 0.124176 4.37402 0.459962 4.37402 0.874176C4.37402 1.28839 4.70981 1.62418 5.12402 1.62418H11.124V7.62418C11.124 8.03839 11.4598 8.37418 11.874 8.37418C12.2882 8.37418 12.624 8.03839 12.624 7.62418L12.624 0.874176ZM1.90435 11.9045L12.4044 1.40451L11.3437 0.343846L0.843693 10.8438L1.90435 11.9045Z" fill="white"/>
</svg>
