<svg width="20" height="23" viewBox="0 0 20 23" fill="none" xmlns="http://www.w3.org/2000/svg">
<path d="M3.93312 4.15664C5.54764 2.57442 7.72133 1.69328 9.98184 1.7047C12.2424 1.71612 14.407 2.61917 16.0055 4.21761C17.6039 5.81606 18.507 7.98074 18.5184 10.2413C18.5298 12.5018 17.6487 14.6755 16.0665 16.29L11.5316 20.8248C11.1253 21.231 10.5743 21.4592 9.99979 21.4592C9.42527 21.4592 8.87427 21.231 8.46796 20.8248L3.93312 16.29C2.32425 14.6809 1.42041 12.4987 1.42041 10.2233C1.42041 7.9479 2.32425 5.76568 3.93312 4.15664Z" stroke="white" stroke-width="1.5" stroke-linejoin="round"/>
<path d="M10 13.4734C11.7949 13.4734 13.25 12.0183 13.25 10.2234C13.25 8.42846 11.7949 6.97339 10 6.97339C8.20507 6.97339 6.75 8.42846 6.75 10.2234C6.75 12.0183 8.20507 13.4734 10 13.4734Z" stroke="white" stroke-width="1.5" stroke-linecap="round" stroke-linejoin="round"/>
</svg>
