<svg width="26" height="26" viewBox="0 0 26 26" fill="none" xmlns="http://www.w3.org/2000/svg">
<path fill-rule="evenodd" clip-rule="evenodd" d="M4.05577 2.02912C5.55349 0.459422 8.01973 0.738336 9.27378 2.50522L10.8269 4.68983C11.8483 6.12721 11.7573 8.13539 10.5451 9.40542L10.2522 9.71417C10.2189 9.84378 10.2156 9.97987 10.2423 10.1111C10.3198 10.6404 10.7395 11.7613 12.4969 13.6034C14.2543 15.4455 15.3249 15.8866 15.8344 15.9696C15.9628 15.9968 16.0954 15.9928 16.2221 15.9579L16.7242 15.4313C17.8023 14.3026 19.4563 14.0912 20.7903 14.8553L23.1409 16.2044C25.1555 17.3564 25.6637 20.2415 24.0147 21.9708L22.2659 23.8026C21.7146 24.3798 20.9737 24.8611 20.0704 24.9506C17.8429 25.1699 12.6532 24.8897 7.19765 19.1726C2.1064 13.8356 1.12925 9.18099 1.00496 6.88741C0.943423 5.72765 1.46276 4.74691 2.12486 4.05417L4.05577 2.02912ZM7.79698 3.67147C7.17304 2.79322 6.01129 2.72316 5.35658 3.40942L3.42444 5.43317C3.01832 5.85867 2.82388 6.32829 2.84849 6.77714C2.94694 8.59981 3.73457 12.7991 8.49969 17.7936C13.4986 23.032 18.1149 23.1889 19.8993 23.0125C20.2636 22.9775 20.6254 22.7777 20.9638 22.4236L22.7114 20.5905C23.4227 19.8459 23.2664 18.4889 22.2597 17.9129L19.9092 16.5651C19.2594 16.194 18.4988 16.316 18.0263 16.8116L17.4663 17.3992L16.8141 16.7091C17.4663 17.3992 17.4651 17.4005 17.4638 17.4005L17.4626 17.4031L17.4589 17.407L17.4503 17.4148L17.4318 17.4329C17.3799 17.4838 17.3239 17.5298 17.2645 17.5705C17.166 17.6392 17.0356 17.7158 16.8719 17.7793C16.5396 17.9103 16.099 17.9804 15.5551 17.8922C14.4881 17.7196 13.0741 16.953 11.1948 14.9837C9.31685 13.0144 8.58338 11.5329 8.41847 10.4095C8.33355 9.83611 8.40124 9.37169 8.52677 9.02143C8.59585 8.82433 8.69477 8.64033 8.81967 8.47657L8.85905 8.43117L8.87628 8.41171L8.88366 8.40392L8.88735 8.40003L8.88981 8.39744L9.24424 8.02642C9.77097 7.47248 9.84481 6.55531 9.34885 5.85608L7.79698 3.67147Z" fill="white"/>
</svg>
